<svg width="362" height="106" viewBox="0 0 362 106" fill="none" xmlns="http://www.w3.org/2000/svg">
<g filter="url(#filter0_d_2_79)">
<path d="M10.663 70.6197H353" stroke="url(#paint0_radial_2_79)" stroke-width="3.21" stroke-miterlimit="10" shape-rendering="crispEdges"/>
</g>
<g filter="url(#filter1_d_2_79)">
<path d="M10 45.776H11.4867C12.5867 50.6299 16.2029 55.358 21.5621 55.358C26.5345 55.358 30.4069 51.8636 30.4069 46.7478C30.4069 34.7087 11.2908 38.2685 11.2908 22.9867C11.2908 14.6384 17.2326 10.3031 25.1081 10.3031C27.755 10.3031 30.4019 10.8872 32.9886 11.2749L34.0232 19.5628H32.5365C31.8283 15.0311 28.8549 12.3776 24.209 12.3776C19.3019 12.3776 16.4591 15.9375 16.4591 20.6655C16.4591 32.7047 36.3487 29.4066 36.3487 44.2906C36.3487 52.7044 28.7947 57.4325 21.1753 57.4325C17.8152 57.4325 14.3295 56.6571 11.2958 55.2321L10 45.776Z" fill="white"/>
</g>
<g filter="url(#filter2_d_2_79)">
<path d="M43.4457 38.5908C43.3151 39.1749 43.3151 40.1416 43.4457 42.347C43.8324 48.495 47.7701 53.5453 52.9384 53.5453C56.4894 53.5453 59.2669 51.6017 61.6577 49.21L62.5618 50.1163C59.5934 54.0639 55.9118 57.4325 50.618 57.4325C40.3517 57.4325 38.2824 47.4628 38.2824 43.3188C38.2824 30.6302 46.8058 26.8739 51.3262 26.8739C56.5547 26.8739 62.175 30.177 62.2403 37.0349C62.2403 37.4226 62.2403 37.8103 62.175 38.198L61.5924 38.5858H43.4457V38.5908ZM54.8772 36.5213C56.4894 36.5213 56.6853 35.6805 56.6853 34.905C56.6853 31.6019 54.6863 28.9484 51.07 28.9484C47.1323 28.9484 44.4201 31.8587 43.6466 36.5213H54.8822H54.8772Z" fill="white"/>
</g>
<g filter="url(#filter3_d_2_79)">
<path d="M68.8852 38.5908C68.7547 39.1749 68.7547 40.1416 68.8852 42.347C69.272 48.495 73.2097 53.5453 78.378 53.5453C81.929 53.5453 84.7065 51.6017 87.0973 49.21L88.0014 50.1163C85.033 54.0639 81.3514 57.4325 76.0576 57.4325C65.7913 57.4325 63.722 47.4628 63.722 43.3188C63.722 30.6302 72.2454 26.8739 76.7657 26.8739C81.9943 26.8739 87.6146 30.177 87.6799 37.0349C87.6799 37.4226 87.6799 37.8103 87.6146 38.198L87.032 38.5858H68.8852V38.5908ZM80.3167 36.5213C81.929 36.5213 82.1249 35.6805 82.1249 34.905C82.1249 31.6019 80.1259 28.9484 76.5096 28.9484C72.5718 28.9484 69.8596 31.8587 69.0861 36.5213H80.3218H80.3167Z" fill="white"/>
</g>
<g filter="url(#filter4_d_2_79)">
<path d="M112.341 48.495C112.341 52.7649 114.666 53.933 116.409 53.933C118.152 53.933 119.443 53.3489 120.93 52.0549L121.899 53.0267C119.639 55.358 116.796 57.4275 113.31 57.4275C109.177 57.4275 107.178 55.2271 107.178 51.4054V31.3401H102.919V30.3029C106.274 27.7148 108.278 26.4862 111.573 21.2395H112.346V27.8407H121.969V31.3351H112.346V48.49L112.341 48.495Z" fill="white"/>
</g>
<g filter="url(#filter5_d_2_79)">
<path d="M125.962 16.582C125.962 12.3726 124.993 12.2467 122.542 11.5317V10.4944C125.124 9.65355 127.836 8.49042 129.192 7.70996C129.905 7.32225 130.417 7 130.613 7C131 7 131.131 7.38771 131.131 7.90633V32.5687C131.713 32.0501 135.847 26.8739 141.075 26.8739C146.696 26.8739 149.729 31.0179 149.729 36.6472V52.6339C149.729 54.7689 151.151 54.7689 152.959 54.7689H154.119V56.4506C151.859 56.4506 149.599 56.3197 147.143 56.3197C144.817 56.3197 142.492 56.3852 140.171 56.4506V54.7689H141.332C144.365 54.7689 144.561 54.0589 144.561 47.7146V40.3984C144.561 35.6704 144.109 30.751 138.233 30.751C135.199 30.751 132.612 33.0168 131.131 34.3763V52.6289C131.131 54.7638 132.552 54.7638 134.36 54.7638H135.52V56.4456C133.26 56.4456 131 56.3147 128.675 56.3147C126.349 56.3147 124.024 56.3801 121.703 56.4456V54.7638H122.863C124.672 54.7638 125.962 54.7638 125.962 52.6289V16.582V16.582Z" fill="white"/>
</g>
<g filter="url(#filter6_d_2_79)">
<path d="M159.991 38.5908C159.86 39.1749 159.86 40.1416 159.991 42.347C160.377 48.495 164.315 53.5453 169.483 53.5453C173.034 53.5453 175.812 51.6017 178.203 49.21L179.107 50.1163C176.138 54.0639 172.457 57.4325 167.163 57.4325C156.897 57.4325 154.827 47.4628 154.827 43.3188C154.827 30.6302 163.351 26.8739 167.871 26.8739C173.1 26.8739 178.72 30.177 178.785 37.0349C178.785 37.4226 178.785 37.8103 178.72 38.198L178.137 38.5858H159.991V38.5908ZM171.422 36.5213C173.034 36.5213 173.23 35.6805 173.23 34.905C173.23 31.6019 171.226 28.9484 167.615 28.9484C163.677 28.9484 160.965 31.8587 160.192 36.5213H171.427H171.422Z" fill="white"/>
</g>
<g filter="url(#filter7_d_2_79)">
<path d="M222.879 34.8345L215.194 16.9697C213.708 13.5407 213.13 12.9566 209.062 12.9566V11.2749C212.095 11.3403 215.069 11.4058 218.037 11.4058C220.232 11.4058 222.623 11.2749 224.752 11.2749V12.9566C223.592 12.9566 221.201 13.0221 221.201 14.578C221.201 15.0966 221.653 16.3906 221.915 17.0402L226.113 27.8507L230.182 18.9838C230.955 17.302 231.342 16.0684 231.342 15.0362C231.342 12.9667 229.795 12.9667 227.018 12.9667V11.285C229.408 11.3504 232.055 11.4159 234.441 11.4159C236.184 11.4159 238.248 11.285 240.061 11.285V12.9667C236.701 12.9667 235.41 14.588 234.185 17.1107L227.6 30.9625L235.35 48.8928L246.134 19.311C247.234 16.3957 247.294 15.5548 247.294 15.1016C247.294 13.9385 246.646 13.0322 242.452 12.9667V11.285C244.843 11.3504 247.294 11.4159 249.685 11.4159C251.297 11.4159 253.17 11.285 254.848 11.285V12.9667C251.814 12.9667 251.101 14.7794 250.071 17.4329L234.637 57.4375H232.959L224.24 37.8859L215.134 57.4375H213.326L197.314 18.0774C195.827 14.5175 195.054 12.9617 190.533 12.9617V11.2799C193.376 11.3454 196.54 11.4108 199.378 11.4108C201.834 11.4108 204.546 11.2799 206.997 11.2799V12.9617C204.029 12.9617 202.994 13.5458 202.994 14.4521C202.994 15.1016 202.994 15.6152 203.708 17.4279L216.365 48.8878L222.884 34.8396L222.879 34.8345Z" fill="white"/>
</g>
<g filter="url(#filter8_d_2_79)">
<path d="M282.734 54.7739H284.476C286.285 54.7739 287.575 54.7739 287.575 52.639V34.4468C287.575 32.4378 285.185 32.0501 284.215 31.5315V30.5597C288.931 28.5506 291.513 26.8689 292.091 26.8689C292.477 26.8689 292.673 27.0652 292.673 27.7097V33.5355H292.804C294.416 31.0128 297.128 26.8689 301.071 26.8689C302.683 26.8689 304.753 27.9716 304.753 30.2978C304.753 32.045 303.527 33.6009 301.719 33.6009C299.72 33.6009 299.72 32.045 297.46 32.045C296.36 32.045 292.744 33.5355 292.744 37.4176V52.6289C292.744 54.7638 294.034 54.7638 295.843 54.7638H299.459V56.4456C295.908 56.3801 293.196 56.3147 290.418 56.3147C287.641 56.3147 285.059 56.3801 282.734 56.4456V54.7638V54.7739Z" fill="white"/>
</g>
<g filter="url(#filter9_d_2_79)">
<path d="M305.139 54.7739H306.365C308.173 54.7739 309.464 54.7739 309.464 52.639V16.582C309.464 12.3726 308.495 12.2467 306.043 11.5317V10.4944C308.625 9.65355 311.337 8.49042 312.693 7.70996C313.402 7.32225 313.919 7 314.115 7C314.502 7 314.632 7.38771 314.632 7.90633V52.639C314.632 54.7739 316.054 54.7739 317.862 54.7739H318.962V56.4557C316.767 56.4557 314.507 56.3247 312.181 56.3247C309.856 56.3247 307.53 56.3902 305.144 56.4557V54.7739H305.139Z" fill="white"/>
</g>
<g filter="url(#filter10_d_2_79)">
<path d="M347.691 50.8918C347.691 53.5453 348.339 53.5453 350.855 53.5453H351.955V54.8394H351.89C350.921 55.0357 349.178 55.5493 347.304 56.1334C345.3 56.7829 343.623 57.4275 343.236 57.4275C342.588 57.4275 342.523 56.4557 342.523 55.6802V52.7044H342.392C340.067 55.1012 336.45 57.4275 332.513 57.4275C324.763 57.4275 320.504 50.6299 320.504 43.3793C320.504 34.6382 327.54 26.8739 336.45 26.8739C338.515 26.8739 340.649 27.2616 342.518 28.037V16.582C342.518 12.3726 341.548 12.2467 339.097 11.5317V10.4944C341.679 9.65355 344.391 8.49042 345.747 7.70996C346.456 7.32225 346.973 7 347.169 7C347.555 7 347.686 7.38771 347.686 7.90633V50.8918H347.691ZM342.528 34.905C342.528 30.1166 338.525 28.9484 335.682 28.9484C331.096 28.9484 326.059 32.3774 326.059 41.1185C326.059 48.2382 330.383 53.5453 336.26 53.5453C338.198 53.5453 342.523 52.1204 342.523 49.7236V34.9L342.528 34.905Z" fill="white"/>
</g>
<g filter="url(#filter11_d_2_79)">
<path d="M34.0232 81.5359C36.0122 81.5359 38.0011 81.5863 40.0152 81.5863C42.2101 81.5863 44.4301 81.5863 46.6551 81.5359L46.8108 85.1865L46.2182 85.2922C45.9871 83.117 44.847 82.3668 42.1649 82.3668H39.0157V89.7232H42.1398C44.1036 89.7232 44.3849 89.4362 44.6963 87.5731H45.289C45.2136 88.555 45.1835 89.5419 45.1835 90.3677C45.1835 91.5308 45.2588 92.9306 45.289 93.137H44.7716C44.4853 91.274 44.3045 90.7806 42.2151 90.7806H39.0107V97.0746C39.0107 99.0937 40.3015 98.862 41.3613 98.9376V99.6123C40.0453 99.5871 38.7545 99.5619 37.4587 99.5619C36.3236 99.5619 35.1583 99.5871 34.0232 99.6123V98.9376C36.0624 98.9376 36.4793 98.6506 36.4793 96.2941V84.4362C36.4793 82.4675 36.0925 82.261 34.0232 82.2107V81.5359Z" fill="white"/>
</g>
<g filter="url(#filter12_d_2_79)">
<path d="M47.8656 81.536C49.1061 81.5611 50.3718 81.5863 51.6878 81.5863C53.0841 81.5863 53.2147 81.536 55.3292 81.536C59.2318 81.536 61.2157 83.4795 61.2157 86.118C61.2157 88.0616 59.8747 89.8491 57.5492 90.5439L60.6481 95.1813C61.1655 95.9316 61.6828 96.6818 62.2504 97.3062C63.2599 98.4441 64.0585 98.9628 65.1685 98.9376V99.6123C64.4955 99.6123 63.8275 99.5619 63.1544 99.5619C62.4312 99.5619 61.733 99.5871 61.0349 99.6123C59.8194 98.2931 58.84 96.8933 57.9861 95.6244C56.9766 94.1239 56.0474 92.5681 55.0931 91.0676H52.7425V97.0997C52.7425 98.6808 53.4909 98.9628 55.0931 98.9376V99.6123C53.9028 99.6123 52.7174 99.5619 51.5019 99.5619C50.2865 99.5619 49.076 99.5871 47.8605 99.6123V98.9376C49.7189 99.0433 50.2111 98.2629 50.2111 97.0997V84.124C50.2111 82.5933 49.6687 82.1805 47.8605 82.2056V81.5309L47.8656 81.536ZM52.7475 90.1059C53.1343 90.1814 53.5461 90.2368 54.1941 90.2368C56.9063 90.2368 58.5336 88.4996 58.5336 86.2741C58.5336 83.7112 57.0369 82.3617 54.2694 82.3617C53.7521 82.3617 53.4708 82.4121 52.7475 82.5178V90.1059V90.1059Z" fill="white"/>
</g>
<g filter="url(#filter13_d_2_79)">
<path d="M84.9576 90.4684C84.9576 95.3374 81.1857 100 75.6557 100C70.1258 100 66.4342 95.4431 66.4342 90.6748C66.4342 85.9065 70.2313 81.1432 75.7361 81.1432C80.9044 81.1432 84.9576 85.5691 84.9576 90.4633V90.4684ZM75.9671 99.1692C79.6588 99.1692 82.1148 95.9819 82.1148 91.2186C82.1148 87.0998 79.7391 81.974 75.3996 81.974C71.8084 81.974 69.277 85.0555 69.277 89.8994C69.277 94.1995 71.7582 99.1692 75.9671 99.1692V99.1692Z" fill="white"/>
</g>
<g filter="url(#filter14_d_2_79)">
<path d="M87.484 81.536C88.3881 81.5611 89.2671 81.5863 90.146 81.5863C90.7387 81.5863 91.3062 81.536 91.8788 81.536L98.8251 96.0625L102.703 88.1623C103.632 86.2741 104.792 83.837 105.802 81.5309C106.475 81.5561 107.117 81.5813 107.79 81.5813C108.589 81.5813 109.393 81.5309 110.191 81.5309V82.2056C108.358 82.2056 107.891 82.4373 107.891 84.1744C107.891 88.0314 108.202 94.9447 108.253 96.9134C108.303 98.57 108.87 98.9325 111.04 98.9325V99.6073C109.644 99.6073 108.253 99.5569 106.856 99.5569C105.565 99.5569 104.3 99.5821 103.009 99.6073V98.9325C103.938 98.9577 104.586 98.9074 104.998 98.7009C105.54 98.4139 105.671 97.7442 105.671 96.8883L105.49 84.5873H105.44L99.5484 96.8379C99.3675 97.2004 98.8753 98.2377 98.3329 99.8439H97.8156C97.1676 98.3938 96.575 97.0997 95.9823 95.856C94.2244 92.1552 92.4413 88.6809 90.6884 85.1613H90.6382C90.5629 88.8118 90.4072 94.9245 90.4072 96.1682C90.4072 97.4119 90.5378 98.1118 90.9496 98.4995C91.3113 98.8369 91.929 98.9376 93.0441 98.9376V99.6123C92.0094 99.6123 90.9798 99.5619 89.9451 99.5619C88.7547 99.5619 87.5945 99.5871 86.4092 99.6123V98.9376C88.4233 98.9376 89.3775 98.288 89.483 95.0554C89.5584 92.3364 89.7693 87.8551 89.7693 84.5671C89.7693 82.5984 89.3323 82.2358 87.4941 82.2107V81.536H87.484Z" fill="white"/>
</g>
<g filter="url(#filter15_d_2_79)">
<path d="M118.142 81.5359C119.383 81.5611 120.543 81.5863 121.578 81.5863C122.974 81.5863 124.159 81.5359 124.882 81.5359V82.2107C123.953 82.2107 123.436 82.3668 123.436 82.7545C123.411 83.0666 123.903 83.7917 124.29 84.3607L127.906 89.4613L131.834 84.0737C132.065 83.7363 132.301 83.2731 132.301 82.9609C132.301 82.2107 131.733 82.2107 130.468 82.2107V81.5359C131.347 81.5611 132.251 81.5863 133.155 81.5863C133.958 81.5863 134.807 81.5359 135.556 81.5359V82.2107C134.496 82.261 134.109 82.7796 133.411 83.7112L128.479 90.3929V96.9436C128.479 98.6254 129.071 98.9376 130.829 98.9376V99.6123C129.564 99.5871 128.298 99.5619 127.032 99.5619C125.872 99.5619 124.732 99.5871 123.597 99.6123V98.9376C125.018 98.9376 125.947 98.8067 125.947 97.1249V90.8057L120.548 83.3486C119.93 82.4675 119.8 82.2862 118.147 82.2107V81.5359H118.142Z" fill="white"/>
</g>
<g filter="url(#filter16_d_2_79)">
<path d="M155.541 90.4684C155.541 95.3374 151.769 100 146.239 100C140.709 100 137.017 95.4431 137.017 90.6748C137.017 85.9065 140.814 81.1432 146.319 81.1432C151.487 81.1432 155.541 85.5691 155.541 90.4633V90.4684ZM146.55 99.1692C150.242 99.1692 152.698 95.9819 152.698 91.2186C152.698 87.0998 150.322 81.974 145.983 81.974C142.391 81.974 139.86 85.0555 139.86 89.8994C139.86 94.1995 142.341 99.1692 146.55 99.1692V99.1692Z" fill="white"/>
</g>
<g filter="url(#filter17_d_2_79)">
<path d="M156.701 81.5359C157.861 81.5611 159.026 81.5863 160.187 81.5863C161.427 81.5863 162.693 81.5611 163.933 81.5359V82.2107C162.1 82.1855 161.583 82.6235 161.583 84.1291V92.9608C161.583 96.8429 163.26 98.9426 166.62 98.9426C169.719 98.9426 171.322 97.1803 171.322 93.9175V86.2791C171.322 82.2912 171.141 82.2661 168.866 82.2107V81.5359C169.875 81.5611 170.88 81.5863 171.889 81.5863C172.844 81.5863 173.773 81.5359 174.732 81.5359V82.2107C172.899 82.2107 172.693 82.9861 172.693 85.5792V93.8671C172.693 97.4421 170.392 100.005 165.952 100.005C161.512 100.005 159.056 97.6737 159.056 93.4291V84.1039C159.056 82.6538 158.539 82.1855 156.706 82.2157V81.541L156.701 81.5359Z" fill="white"/>
</g>
<g filter="url(#filter18_d_2_79)">
<path d="M175.325 81.536C176.565 81.5611 177.831 81.5863 179.147 81.5863C180.543 81.5863 180.674 81.536 182.788 81.536C186.691 81.536 188.675 83.4795 188.675 86.118C188.675 88.0616 187.334 89.8491 185.008 90.5439L188.107 95.1813C188.625 95.9316 189.142 96.6818 189.709 97.3062C190.719 98.4441 191.518 98.9628 192.628 98.9376V99.6123C191.955 99.6123 191.287 99.5619 190.614 99.5619C189.89 99.5619 189.192 99.5871 188.494 99.6123C187.279 98.2931 186.299 96.8933 185.445 95.6244C184.436 94.1239 183.507 92.5681 182.552 91.0676H180.202V97.0997C180.202 98.6808 180.95 98.9628 182.552 98.9376V99.6123C181.362 99.6123 180.177 99.5619 178.961 99.5619C177.746 99.5619 176.535 99.5871 175.32 99.6123V98.9376C177.178 99.0433 177.67 98.2629 177.67 97.0997V84.124C177.67 82.5933 177.128 82.1805 175.32 82.2056V81.5309L175.325 81.536ZM180.207 90.1059C180.593 90.1814 181.005 90.2368 181.653 90.2368C184.365 90.2368 185.993 88.4996 185.993 86.2741C185.993 83.7112 184.496 82.3617 181.729 82.3617C181.211 82.3617 180.93 82.4121 180.207 82.5178V90.1059V90.1059Z" fill="white"/>
</g>
<g filter="url(#filter19_d_2_79)">
<path d="M199.679 81.536C200.714 81.5863 201.774 81.5863 202.859 81.5863C203.788 81.5863 205.676 81.536 207.123 81.536C214.044 81.536 217.535 86.1432 217.535 90.5993C217.535 93.706 215.571 99.6123 206.942 99.6123C205.651 99.6123 204.23 99.5619 202.989 99.5619C201.879 99.5619 200.769 99.5871 199.684 99.6123V98.9376C201.236 98.7815 202.06 98.7311 202.06 96.9688V84.4866C202.06 82.8804 201.623 82.2056 200.121 82.2056H199.684V81.5309L199.679 81.536ZM204.586 96.5559C204.586 98.5499 206.008 98.7815 207.299 98.7815C212.437 98.7815 214.687 95.0806 214.687 90.7C214.687 85.831 211.563 82.3617 206.601 82.3617C205.591 82.3617 205.104 82.4373 204.586 82.4675V96.5559V96.5559Z" fill="white"/>
</g>
<g filter="url(#filter20_d_2_79)">
<path d="M238.394 90.4684C238.394 95.3374 234.622 100 229.092 100C223.562 100 219.87 95.4431 219.87 90.6748C219.87 85.9065 223.667 81.1432 229.172 81.1432C234.341 81.1432 238.394 85.5691 238.394 90.4633V90.4684ZM229.403 99.1692C233.095 99.1692 235.551 95.9819 235.551 91.2186C235.551 87.0998 233.175 81.974 228.836 81.974C225.245 81.974 222.713 85.0555 222.713 89.8994C222.713 94.1995 225.194 99.1692 229.403 99.1692V99.1692Z" fill="white"/>
</g>
<g filter="url(#filter21_d_2_79)">
<path d="M259.263 90.4684C259.263 95.3374 255.491 100 249.961 100C244.431 100 240.739 95.4431 240.739 90.6748C240.739 85.9065 244.536 81.1432 250.041 81.1432C255.21 81.1432 259.263 85.5691 259.263 90.4633V90.4684ZM250.272 99.1692C253.964 99.1692 256.42 95.9819 256.42 91.2186C256.42 87.0998 254.044 81.974 249.705 81.974C246.114 81.974 243.582 85.0555 243.582 89.8994C243.582 94.1995 246.063 99.1692 250.272 99.1692V99.1692Z" fill="white"/>
</g>
<g filter="url(#filter22_d_2_79)">
<path d="M261.041 81.536C262.281 81.5611 263.547 81.5863 264.863 81.5863C266.259 81.5863 266.39 81.536 268.504 81.536C272.407 81.536 274.391 83.4795 274.391 86.118C274.391 88.0616 273.05 89.8491 270.724 90.5439L273.823 95.1813C274.341 95.9316 274.858 96.6818 275.426 97.3062C276.435 98.4441 277.234 98.9628 278.344 98.9376V99.6123C277.671 99.6123 277.003 99.5619 276.33 99.5619C275.606 99.5619 274.908 99.5871 274.21 99.6123C272.995 98.2931 272.015 96.8933 271.161 95.6244C270.152 94.1239 269.223 92.5681 268.268 91.0676H265.918V97.0997C265.918 98.6808 266.666 98.9628 268.268 98.9376V99.6123C267.078 99.6123 265.893 99.5619 264.677 99.5619C263.462 99.5619 262.251 99.5871 261.036 99.6123V98.9376C262.894 99.0433 263.386 98.2629 263.386 97.0997V84.124C263.386 82.5933 262.844 82.1805 261.036 82.2056V81.5309L261.041 81.536ZM265.923 90.1059C266.31 90.1814 266.721 90.2368 267.369 90.2368C270.082 90.2368 271.709 88.4996 271.709 86.2741C271.709 83.7112 270.212 82.3617 267.445 82.3617C266.927 82.3617 266.646 82.4121 265.923 82.5178V90.1059V90.1059Z" fill="white"/>
</g>
<g filter="url(#filter23_d_2_79)">
<path d="M288.499 81.536L288.911 84.8491H288.319C288.032 83.0113 286.822 81.974 284.989 81.974C283.025 81.974 281.89 83.399 281.89 85.2872C281.89 90.131 289.846 88.7564 289.846 94.7382C289.846 98.0816 286.872 99.995 283.773 99.995C282.482 99.995 281.086 99.708 279.82 99.1138L279.303 95.3324H279.896C280.413 97.5328 281.96 99.1642 283.924 99.1642C285.888 99.1642 287.465 97.7392 287.465 95.7201C287.465 90.9014 279.82 92.3264 279.82 86.2137C279.82 83.0264 282.015 81.1382 285.35 81.1382C286.36 81.1382 287.495 81.3698 288.499 81.5259V81.536Z" fill="white"/>
</g>
<g filter="url(#filter24_d_2_79)">
<path d="M291.081 80.8109H291.598C291.855 81.5108 292.658 81.536 293.15 81.536H305.034C305.782 81.536 306.531 81.3295 306.636 80.8109H307.179L306.948 84.9297H306.249C306.144 83.7112 306.405 82.5984 304.155 82.5984H300.252V97.1249C300.252 98.8872 301.287 98.9124 302.603 98.9376V99.6123C301.362 99.6123 300.097 99.5619 298.831 99.5619C297.671 99.5619 296.531 99.5871 295.37 99.6123V98.9376C296.455 98.8872 297.721 99.0433 297.721 97.1501V82.5984H294.361C292.191 82.5984 291.905 83.0667 291.468 84.9297H290.795L291.081 80.8109V80.8109Z" fill="white"/>
</g>
<g filter="url(#filter25_d_2_79)">
<path d="M307.761 81.5359C309.389 81.5863 312.387 81.5863 314.713 81.5863C316.596 81.5863 319.127 81.5611 320.423 81.5359V85.3929L319.906 85.5238C319.544 83.1422 318.354 82.3668 315.878 82.3668H312.754V89.7232H316.214C317.505 89.7232 318.254 89.0485 318.334 87.4976H318.851C318.801 88.0918 318.746 89.1542 318.746 90.4231C318.746 91.123 318.876 92.4925 318.851 93.273H318.334C318.309 91.123 317.766 90.7856 316.008 90.7856H312.754V95.423C312.754 98.1924 312.96 98.7916 315.516 98.7916H316.988C317.967 98.7916 318.485 98.716 318.871 98.6355C320.032 98.3485 320.91 97.7291 321.684 95.5539L322.302 95.6597C321.89 96.9789 321.528 98.147 321.242 99.6224C318.786 99.6224 316.31 99.572 313.854 99.572C311.814 99.572 309.8 99.572 307.756 99.6224V98.9476C309.876 98.9225 310.212 98.6606 310.212 96.2035V84.4463C310.212 82.5279 309.876 82.2711 307.756 82.2207V81.546L307.761 81.5359Z" fill="white"/>
</g>
<g filter="url(#filter26_d_2_79)">
<path d="M322.819 81.5359C323.567 81.5611 324.602 81.5863 325.506 81.5863C327.339 81.5863 327.907 81.5359 329.097 81.5359C332.016 81.5359 335.657 82.7293 335.657 86.6869C335.657 89.5872 332.995 91.8682 330.077 91.8682C329.665 91.8682 329.198 91.843 328.786 91.843V90.987C329.072 91.0374 329.509 91.0374 329.59 91.0374C330.443 91.0374 330.75 90.9064 331.192 90.6748C332.046 90.2368 332.975 88.8873 332.975 86.9488C332.975 83.7615 330.936 82.3668 328.686 82.3668C328.429 82.3668 327.857 82.3919 327.626 82.4423V97.0997C327.626 98.6808 328.349 98.9376 330.001 98.9376V99.6123C328.736 99.6123 327.47 99.5619 326.204 99.5619C325.044 99.5619 323.904 99.5871 322.744 99.6123V98.9376C324.371 98.9376 325.094 98.706 325.094 97.0192V84.6175C325.094 82.5984 324.602 82.2358 322.819 82.2107V81.5359Z" fill="white"/>
</g>
<g filter="url(#filter27_d_2_79)">
<path d="M263.884 41.3904C263.175 41.3904 262.603 41.9644 262.603 42.6693C262.603 43.3742 263.175 43.9533 263.884 43.9533C264.592 43.9533 265.164 43.3793 265.164 42.6693C265.164 41.9593 264.592 41.3904 263.884 41.3904ZM263.884 43.6965C263.316 43.6965 262.859 43.2383 262.859 42.6693C262.859 42.1003 263.316 41.6421 263.884 41.6421C264.451 41.6421 264.908 42.1003 264.908 42.6693C264.908 43.2383 264.451 43.6965 263.884 43.6965ZM278.73 42.8103C275.21 42.0651 271.694 41.3249 268.173 40.5797V40.5545C269.464 38.5707 270.755 36.5918 272.04 34.608C270.051 35.907 268.062 37.2061 266.068 38.5052C264.838 32.614 263.874 27.9665 263.838 27.9212C263.11 31.4308 262.387 34.9453 261.659 38.4548C261.643 38.4649 261.623 38.47 261.608 38.48C259.634 37.191 257.661 35.902 255.692 34.608C256.962 36.5717 258.238 38.5404 259.509 40.5042C259.524 40.5193 259.544 40.5394 259.559 40.5545C256.048 41.2997 252.537 42.0399 249.027 42.7851C252.517 43.5303 256.013 44.2705 259.504 45.0157H259.554C258.283 46.9694 257.008 48.9281 255.737 50.8867C255.722 50.9119 255.702 50.9371 255.687 50.9623C257.666 49.6733 259.65 48.3843 261.628 47.0902C262.362 50.6199 263.095 54.1495 263.833 57.6742C264.577 54.1445 265.32 50.6148 266.063 47.0902H266.089C268.067 48.3893 270.051 49.6884 272.03 50.9874C270.739 49.0036 269.449 47.0247 268.163 45.0409C271.684 44.2957 275.2 43.5555 278.72 42.8103H278.73ZM267.455 37.9161C268.675 37.1054 269.896 36.2948 271.116 35.4791C269.554 37.05 267.992 38.621 266.425 40.197C266.33 39.7439 266.239 39.2907 266.144 38.8375C266.224 38.5606 267.178 38.0923 267.45 37.9161H267.455ZM256.541 35.4791H256.566C258.138 37.0601 259.71 38.6412 261.282 40.2222C260.805 40.3179 260.328 40.4085 259.845 40.5042C258.745 38.8275 257.64 37.1558 256.541 35.4791ZM256.566 50.1164C258.128 48.5454 259.69 46.9744 261.257 45.3984C261.367 45.8767 261.478 46.3551 261.588 46.8334C259.916 47.926 258.238 49.0187 256.566 50.1164V50.1164ZM263.894 56.1133C263.889 52.5735 263.879 49.0288 263.874 45.489C263.125 45.489 262.442 45.1919 261.94 44.7086L261.563 45.0912C257.917 44.3309 254.27 43.5706 250.624 42.8103H261.071C261.071 42.765 261.066 42.7146 261.066 42.6693C261.066 41.9241 261.357 41.2443 261.829 40.7408L261.563 40.479C262.322 36.7983 263.085 33.1125 263.843 29.4318C263.848 32.9061 263.858 36.3803 263.864 39.8496C263.869 39.8496 263.874 39.8496 263.884 39.8496C264.687 39.8496 265.415 40.187 265.928 40.7308L266.179 40.479C269.84 41.2393 273.507 41.9996 277.168 42.7599C273.678 42.765 270.187 42.775 266.696 42.7801C266.666 43.5454 266.33 44.2353 265.807 44.7287C265.933 44.8495 266.053 44.9704 266.179 45.0963C265.421 48.772 264.657 52.4426 263.899 56.1183L263.894 56.1133ZM271.197 50.1164C269.614 48.5353 268.037 46.9543 266.455 45.3732C266.917 45.2725 267.671 45.1466 267.952 45.0912C268.083 45.2221 270.403 48.9079 271.197 50.1164ZM263.884 40.1064C262.467 40.1064 261.322 41.2544 261.322 42.6693C261.322 44.0842 262.467 45.2322 263.884 45.2322C265.3 45.2322 266.445 44.0842 266.445 42.6693C266.445 41.2544 265.3 40.1064 263.884 40.1064ZM263.884 44.7186C262.754 44.7186 261.834 43.8022 261.834 42.6693C261.834 41.5364 262.754 40.62 263.884 40.62C265.014 40.62 265.933 41.5364 265.933 42.6693C265.933 43.8022 265.014 44.7186 263.884 44.7186ZM263.884 41.8989C263.457 41.8989 263.115 42.2413 263.115 42.6693C263.115 43.0973 263.462 43.4397 263.884 43.4397C264.306 43.4397 264.652 43.0973 264.652 42.6693C264.652 42.2413 264.306 41.8989 263.884 41.8989Z" fill="#D0D6EB"/>
<path d="M250.423 33.9081L251.508 34.6281L251.794 34.1951L250.709 33.475L250.423 33.9081ZM252.99 32.6795L252.01 31.8235L251.669 32.2162L252.648 33.0722L252.99 32.6795ZM248.143 39.7388L249.418 39.9906L249.519 39.477L248.243 39.2252L248.143 39.7388ZM249.408 35.7459L250.579 36.3199L250.81 35.8517L249.639 35.2776L249.408 35.7459ZM248.645 37.6996L249.881 38.1175L250.046 37.624L248.811 37.2061L248.645 37.6996ZM271.202 42.6945C271.202 38.5153 267.821 35.1216 263.648 35.1216C259.474 35.1216 256.094 38.5102 256.094 42.6945C256.094 46.8787 259.474 50.2674 263.648 50.2674C267.821 50.2674 271.202 46.8787 271.202 42.6945V42.6945ZM256.877 42.6945C256.877 38.9433 259.911 35.902 263.653 35.902C267.394 35.902 270.428 38.9433 270.428 42.6945C270.428 46.4457 267.394 49.487 263.653 49.487C259.911 49.487 256.877 46.4457 256.877 42.6945ZM253.19 54.502L253.582 54.8444L254.436 53.8625L254.044 53.5201L253.19 54.502ZM273.286 42.6945C273.286 37.3572 268.972 33.037 263.653 33.037C258.334 33.037 254.019 37.3622 254.019 42.6945C254.019 48.0267 258.334 52.352 263.653 52.352C268.972 52.352 273.286 48.0267 273.286 42.6945V42.6945ZM254.27 42.6945C254.27 37.5032 258.469 33.2938 263.648 33.2938C268.826 33.2938 273.025 37.5032 273.025 42.6945C273.025 47.8858 268.826 52.0952 263.648 52.0952C258.469 52.0952 254.27 47.8858 254.27 42.6945ZM276.932 42.6945C276.932 35.3431 270.986 29.3814 263.653 29.3814C256.32 29.3814 250.373 35.3431 250.373 42.6945C250.373 50.0459 256.32 56.0075 263.653 56.0075C270.986 56.0075 276.932 50.0459 276.932 42.6945ZM250.629 42.6945C250.629 35.4841 256.46 29.6433 263.648 29.6433C270.835 29.6433 276.666 35.4891 276.666 42.6945C276.666 49.8998 270.835 55.7457 263.648 55.7457C256.46 55.7457 250.629 49.8998 250.629 42.6945ZM247.877 40.9422C248.359 36.1387 250.98 31.9846 254.752 29.3965L255.476 30.4791L255.908 30.1871L255.184 29.1045C255.626 28.8225 256.078 28.5557 256.551 28.314L257.128 29.4771L257.595 29.2455L257.018 28.0824C257.49 27.8608 257.972 27.6544 258.469 27.4781L258.891 28.7067L259.383 28.5355L258.961 27.3019C259.459 27.1458 259.966 27.0099 260.483 26.9041L260.739 28.168L261.252 28.0622L260.996 26.8034C261.156 26.7732 261.317 26.748 261.478 26.7229C262.231 26.6121 262.186 25.7964 261.412 25.9071C253.803 26.9796 247.831 33.1679 247.063 40.8868C247.093 41.0027 247.866 40.9825 247.877 40.9473V40.9422ZM263.196 25.5547L264.265 27.4227H264.813V24.7944H264.3V26.6272L263.261 24.7944H262.688V27.4227H263.201V25.5547H263.196ZM265.697 26.6675C266.043 26.7077 266.38 26.7732 266.716 26.8336L266.48 28.0421L266.993 28.1428L267.229 26.9343C267.741 27.0451 268.243 27.1911 268.735 27.3522L268.349 28.5053L268.841 28.6715L269.228 27.5234C269.72 27.7047 270.202 27.9011 270.669 28.1226L270.142 29.2052L270.609 29.4368L271.131 28.3643C271.593 28.606 272.045 28.8729 272.477 29.1548L271.824 30.1367L272.256 30.4237L272.909 29.4368C273.336 29.7339 273.748 30.0561 274.14 30.3935L273.371 31.2797L273.763 31.6221L274.527 30.746C274.908 31.0984 275.28 31.466 275.626 31.8487L274.763 32.614L275.109 33.0068L275.978 32.2364C276.315 32.6342 276.621 33.0471 276.917 33.4801L275.968 34.1195L276.259 34.5526L277.209 33.9131C277.49 34.3512 277.756 34.7943 277.992 35.2625L276.968 35.7761L277.199 36.2444L278.218 35.7358C278.439 36.2041 278.635 36.6825 278.811 37.1759L277.741 37.5435L277.912 38.0369L278.987 37.6643C279.142 38.1578 279.283 38.6563 279.393 39.1698L278.278 39.3964L278.384 39.91L279.489 39.6885C279.534 39.9453 279.589 40.2021 279.625 40.4589C279.715 41.1537 280.529 41.0883 280.433 40.3682C279.439 32.7903 273.417 26.7984 265.832 25.8719C265.159 25.7913 265.064 26.602 265.692 26.6775L265.697 26.6675ZM261.091 58.359L261.337 57.0951L260.825 56.9944L260.579 58.2633C260.061 58.1576 259.554 58.0166 259.057 57.8655L259.469 56.6369L258.977 56.4708L258.565 57.7044C258.067 57.5332 257.585 57.3267 257.108 57.1052L257.681 55.937L257.214 55.7054L256.646 56.8736C256.174 56.6369 255.722 56.3701 255.275 56.0931L255.993 55.0055L255.561 54.7185L254.843 55.8061C251.136 53.2936 248.529 49.2906 247.937 44.633C247.871 44.5474 247.118 44.6079 247.113 44.633C248.057 52.4023 254.28 58.5352 262.075 59.3257C262.08 59.361 262.176 58.5654 262.075 58.505C261.749 58.4697 261.423 58.4194 261.101 58.369L261.091 58.359ZM247.445 44.1194H247.972L248.71 41.4911H248.153L247.801 43.0117L247.721 43.4145L247.64 42.9966L247.329 41.4911H246.751L246.455 43.0067L246.38 43.4195L246.304 43.0016L245.958 41.4961H245.375L246.119 44.1245H246.626L246.942 42.5837L247.033 42.0752L247.123 42.5837L247.44 44.1245L247.445 44.1194ZM279.926 43.6058V42.9311H281.202V42.4729H279.926V41.914H281.312V41.4458H279.388V44.0741H281.377V43.6008H279.926V43.6058ZM279.599 44.8495C279.474 45.7206 279.283 46.5665 279.022 47.3822L277.937 47.0147L277.771 47.5081L278.856 47.8757C278.685 48.3691 278.489 48.8525 278.273 49.3208L277.239 48.8122L277.008 49.2805L278.042 49.7891C277.806 50.2523 277.55 50.7105 277.274 51.1486L276.31 50.5091L276.023 50.9421L276.988 51.5816C276.696 52.0096 276.38 52.4275 276.048 52.8253L275.169 52.0599L274.828 52.4527L275.707 53.2231C275.36 53.6108 274.994 53.9834 274.612 54.3358L273.833 53.4547L273.442 53.8021L274.22 54.6883C273.828 55.0307 273.417 55.3479 272.995 55.65L272.332 54.6631L271.9 54.9552L272.563 55.9471C272.131 56.2341 271.679 56.501 271.217 56.7477L270.679 55.6651L270.212 55.8968L270.75 56.9793C270.282 57.2059 269.805 57.4123 269.313 57.5986L268.916 56.4406L268.424 56.6118L268.821 57.7699C268.329 57.936 267.826 58.077 267.314 58.1928L267.068 56.9793L266.556 57.0851L266.802 58.3036C266.31 58.3992 265.807 58.4748 265.3 58.5201C265.039 58.5704 265.054 59.2653 265.325 59.3408C273.11 58.6258 279.358 52.5836 280.413 44.8848C280.413 44.7891 279.7 44.7388 279.594 44.8546L279.599 44.8495ZM250.076 47.5988L249.906 47.1053L248.675 47.5283L248.846 48.0217L250.076 47.5988ZM250.85 49.3661L250.619 48.8978L249.454 49.4769L249.685 49.9452L250.85 49.3661ZM248.263 46.0026L249.539 45.7458L249.434 45.2322L248.158 45.489L248.263 46.0026ZM251.849 51.0177L251.558 50.5846L250.478 51.3147L250.77 51.7478L251.849 51.0177ZM253.512 30.3532L253.12 30.7007L253.984 31.6775L254.376 31.3301L253.512 30.3532ZM253.055 52.5232L252.708 52.1304L251.734 52.9965L252.08 53.3892L253.055 52.5232ZM264.125 59.0387L263.663 58.9279C263.487 58.8877 263.366 58.8524 263.316 58.8172C263.231 58.7719 263.19 58.7014 263.19 58.6057C263.19 58.505 263.236 58.4244 263.321 58.364C263.406 58.3086 263.522 58.2784 263.668 58.2784C263.798 58.2784 263.909 58.2985 263.994 58.3439C264.125 58.4093 264.195 58.5251 264.205 58.6812H264.732C264.722 58.3992 264.617 58.1878 264.421 58.0417C264.225 57.8957 263.984 57.8202 263.703 57.8202C263.366 57.8202 263.115 57.8957 262.939 58.0518C262.769 58.2079 262.678 58.4043 262.678 58.6409C262.678 58.8977 262.769 59.0891 262.944 59.2099C263.05 59.2804 263.241 59.3509 263.522 59.4113L263.808 59.4717C263.974 59.507 264.095 59.5473 264.175 59.5926C264.25 59.6379 264.29 59.7084 264.29 59.794C264.29 59.945 264.21 60.0458 264.054 60.1011C263.974 60.1314 263.864 60.1465 263.733 60.1465C263.512 60.1465 263.356 60.0911 263.266 59.9853C263.216 59.9249 263.18 59.8343 263.165 59.7134H262.643C262.643 59.9853 262.743 60.2018 262.939 60.3579C263.135 60.514 263.411 60.5946 263.753 60.5946C264.095 60.5946 264.356 60.514 264.537 60.3579C264.722 60.1968 264.813 60.0004 264.813 59.7587C264.813 59.5171 264.732 59.3459 264.577 59.22C264.476 59.1394 264.326 59.074 264.125 59.0286V59.0387Z" fill="#D0D6EB"/>
<path d="M263.874 29.2052L261.628 40.192L261.568 40.484L261.839 40.7408C261.839 40.7408 262.015 40.4186 262.643 40.1114C263.271 39.8043 263.889 39.8546 263.889 39.8546L263.874 29.2052V29.2052ZM266.631 41.7227C266.812 42.2312 266.706 42.7801 266.706 42.7801L277.48 42.8002L276.872 42.6995L266.184 40.479L265.943 40.7257C265.943 40.7257 266.455 41.2091 266.636 41.7227H266.631ZM265.064 45.2322C264.622 45.4236 263.889 45.489 263.889 45.489L263.919 56.3046L266.184 45.0912L265.827 44.7186C265.827 44.7186 265.511 45.0409 265.069 45.2322H265.064ZM261.071 42.8103L250.348 42.7952C250.348 42.7952 250.689 42.8657 251.247 42.9815C253.904 43.5404 261.548 45.1416 261.548 45.1416L261.95 44.7086C261.95 44.7086 261.669 44.4467 261.382 43.9482C261.086 43.4347 261.076 42.8053 261.076 42.8053L261.071 42.8103ZM271.126 35.4791L266.154 38.7368L266.435 40.192L271.126 35.474V35.4791ZM266.465 45.3732L271.377 50.2724L267.957 45.0912L266.46 45.3732H266.465ZM256.576 50.1164L261.598 46.8334L261.267 45.3984L256.576 50.1164V50.1164ZM259.855 40.5042L261.633 40.187L256.576 35.4791L259.855 40.5042Z" fill="white"/>
</g>
<defs>
<filter id="filter0_d_2_79" x="2.66299" y="64.0147" width="358.337" height="19.21" filterUnits="userSpaceOnUse" color-interpolation-filters="sRGB">
<feFlood flood-opacity="0" result="BackgroundImageFix"/>
<feColorMatrix in="SourceAlpha" type="matrix" values="0 0 0 0 0 0 0 0 0 0 0 0 0 0 0 0 0 0 127 0" result="hardAlpha"/>
<feOffset dy="3"/>
<feGaussianBlur stdDeviation="4"/>
<feComposite in2="hardAlpha" operator="out"/>
<feColorMatrix type="matrix" values="0 0 0 0 0.0666667 0 0 0 0 0.0862745 0 0 0 0 0.192157 0 0 0 0.83 0"/>
<feBlend mode="normal" in2="BackgroundImageFix" result="effect1_dropShadow_2_79"/>
<feBlend mode="normal" in="SourceGraphic" in2="effect1_dropShadow_2_79" result="shape"/>
</filter>
<filter id="filter1_d_2_79" x="0" y="3.30309" width="46.3487" height="67.1294" filterUnits="userSpaceOnUse" color-interpolation-filters="sRGB">
<feFlood flood-opacity="0" result="BackgroundImageFix"/>
<feColorMatrix in="SourceAlpha" type="matrix" values="0 0 0 0 0 0 0 0 0 0 0 0 0 0 0 0 0 0 127 0" result="hardAlpha"/>
<feOffset dy="3"/>
<feGaussianBlur stdDeviation="5"/>
<feComposite in2="hardAlpha" operator="out"/>
<feColorMatrix type="matrix" values="0 0 0 0 0.0666667 0 0 0 0 0.0862745 0 0 0 0 0.192157 0 0 0 0.83 0"/>
<feBlend mode="normal" in2="BackgroundImageFix" result="effect1_dropShadow_2_79"/>
<feBlend mode="normal" in="SourceGraphic" in2="effect1_dropShadow_2_79" result="shape"/>
</filter>
<filter id="filter2_d_2_79" x="28.2824" y="19.8739" width="44.2794" height="50.5586" filterUnits="userSpaceOnUse" color-interpolation-filters="sRGB">
<feFlood flood-opacity="0" result="BackgroundImageFix"/>
<feColorMatrix in="SourceAlpha" type="matrix" values="0 0 0 0 0 0 0 0 0 0 0 0 0 0 0 0 0 0 127 0" result="hardAlpha"/>
<feOffset dy="3"/>
<feGaussianBlur stdDeviation="5"/>
<feComposite in2="hardAlpha" operator="out"/>
<feColorMatrix type="matrix" values="0 0 0 0 0.0666667 0 0 0 0 0.0862745 0 0 0 0 0.192157 0 0 0 0.83 0"/>
<feBlend mode="normal" in2="BackgroundImageFix" result="effect1_dropShadow_2_79"/>
<feBlend mode="normal" in="SourceGraphic" in2="effect1_dropShadow_2_79" result="shape"/>
</filter>
<filter id="filter3_d_2_79" x="53.722" y="19.8739" width="44.2794" height="50.5586" filterUnits="userSpaceOnUse" color-interpolation-filters="sRGB">
<feFlood flood-opacity="0" result="BackgroundImageFix"/>
<feColorMatrix in="SourceAlpha" type="matrix" values="0 0 0 0 0 0 0 0 0 0 0 0 0 0 0 0 0 0 127 0" result="hardAlpha"/>
<feOffset dy="3"/>
<feGaussianBlur stdDeviation="5"/>
<feComposite in2="hardAlpha" operator="out"/>
<feColorMatrix type="matrix" values="0 0 0 0 0.0666667 0 0 0 0 0.0862745 0 0 0 0 0.192157 0 0 0 0.83 0"/>
<feBlend mode="normal" in2="BackgroundImageFix" result="effect1_dropShadow_2_79"/>
<feBlend mode="normal" in="SourceGraphic" in2="effect1_dropShadow_2_79" result="shape"/>
</filter>
<filter id="filter4_d_2_79" x="92.9185" y="14.2395" width="39.0508" height="56.1879" filterUnits="userSpaceOnUse" color-interpolation-filters="sRGB">
<feFlood flood-opacity="0" result="BackgroundImageFix"/>
<feColorMatrix in="SourceAlpha" type="matrix" values="0 0 0 0 0 0 0 0 0 0 0 0 0 0 0 0 0 0 127 0" result="hardAlpha"/>
<feOffset dy="3"/>
<feGaussianBlur stdDeviation="5"/>
<feComposite in2="hardAlpha" operator="out"/>
<feColorMatrix type="matrix" values="0 0 0 0 0.0666667 0 0 0 0 0.0862745 0 0 0 0 0.192157 0 0 0 0.83 0"/>
<feBlend mode="normal" in2="BackgroundImageFix" result="effect1_dropShadow_2_79"/>
<feBlend mode="normal" in="SourceGraphic" in2="effect1_dropShadow_2_79" result="shape"/>
</filter>
<filter id="filter5_d_2_79" x="111.703" y="0" width="52.416" height="69.4506" filterUnits="userSpaceOnUse" color-interpolation-filters="sRGB">
<feFlood flood-opacity="0" result="BackgroundImageFix"/>
<feColorMatrix in="SourceAlpha" type="matrix" values="0 0 0 0 0 0 0 0 0 0 0 0 0 0 0 0 0 0 127 0" result="hardAlpha"/>
<feOffset dy="3"/>
<feGaussianBlur stdDeviation="5"/>
<feComposite in2="hardAlpha" operator="out"/>
<feColorMatrix type="matrix" values="0 0 0 0 0.0666667 0 0 0 0 0.0862745 0 0 0 0 0.192157 0 0 0 0.83 0"/>
<feBlend mode="normal" in2="BackgroundImageFix" result="effect1_dropShadow_2_79"/>
<feBlend mode="normal" in="SourceGraphic" in2="effect1_dropShadow_2_79" result="shape"/>
</filter>
<filter id="filter6_d_2_79" x="144.827" y="19.8739" width="44.2794" height="50.5586" filterUnits="userSpaceOnUse" color-interpolation-filters="sRGB">
<feFlood flood-opacity="0" result="BackgroundImageFix"/>
<feColorMatrix in="SourceAlpha" type="matrix" values="0 0 0 0 0 0 0 0 0 0 0 0 0 0 0 0 0 0 127 0" result="hardAlpha"/>
<feOffset dy="3"/>
<feGaussianBlur stdDeviation="5"/>
<feComposite in2="hardAlpha" operator="out"/>
<feColorMatrix type="matrix" values="0 0 0 0 0.0666667 0 0 0 0 0.0862745 0 0 0 0 0.192157 0 0 0 0.83 0"/>
<feBlend mode="normal" in2="BackgroundImageFix" result="effect1_dropShadow_2_79"/>
<feBlend mode="normal" in="SourceGraphic" in2="effect1_dropShadow_2_79" result="shape"/>
</filter>
<filter id="filter7_d_2_79" x="180.533" y="4.27488" width="84.3147" height="66.1626" filterUnits="userSpaceOnUse" color-interpolation-filters="sRGB">
<feFlood flood-opacity="0" result="BackgroundImageFix"/>
<feColorMatrix in="SourceAlpha" type="matrix" values="0 0 0 0 0 0 0 0 0 0 0 0 0 0 0 0 0 0 127 0" result="hardAlpha"/>
<feOffset dy="3"/>
<feGaussianBlur stdDeviation="5"/>
<feComposite in2="hardAlpha" operator="out"/>
<feColorMatrix type="matrix" values="0 0 0 0 0.0666667 0 0 0 0 0.0862745 0 0 0 0 0.192157 0 0 0 0.83 0"/>
<feBlend mode="normal" in2="BackgroundImageFix" result="effect1_dropShadow_2_79"/>
<feBlend mode="normal" in="SourceGraphic" in2="effect1_dropShadow_2_79" result="shape"/>
</filter>
<filter id="filter8_d_2_79" x="272.734" y="19.8689" width="42.0192" height="49.5767" filterUnits="userSpaceOnUse" color-interpolation-filters="sRGB">
<feFlood flood-opacity="0" result="BackgroundImageFix"/>
<feColorMatrix in="SourceAlpha" type="matrix" values="0 0 0 0 0 0 0 0 0 0 0 0 0 0 0 0 0 0 127 0" result="hardAlpha"/>
<feOffset dy="3"/>
<feGaussianBlur stdDeviation="5"/>
<feComposite in2="hardAlpha" operator="out"/>
<feColorMatrix type="matrix" values="0 0 0 0 0.0666667 0 0 0 0 0.0862745 0 0 0 0 0.192157 0 0 0 0.83 0"/>
<feBlend mode="normal" in2="BackgroundImageFix" result="effect1_dropShadow_2_79"/>
<feBlend mode="normal" in="SourceGraphic" in2="effect1_dropShadow_2_79" result="shape"/>
</filter>
<filter id="filter9_d_2_79" x="295.139" y="0" width="33.8223" height="69.4557" filterUnits="userSpaceOnUse" color-interpolation-filters="sRGB">
<feFlood flood-opacity="0" result="BackgroundImageFix"/>
<feColorMatrix in="SourceAlpha" type="matrix" values="0 0 0 0 0 0 0 0 0 0 0 0 0 0 0 0 0 0 127 0" result="hardAlpha"/>
<feOffset dy="3"/>
<feGaussianBlur stdDeviation="5"/>
<feComposite in2="hardAlpha" operator="out"/>
<feColorMatrix type="matrix" values="0 0 0 0 0.0666667 0 0 0 0 0.0862745 0 0 0 0 0.192157 0 0 0 0.83 0"/>
<feBlend mode="normal" in2="BackgroundImageFix" result="effect1_dropShadow_2_79"/>
<feBlend mode="normal" in="SourceGraphic" in2="effect1_dropShadow_2_79" result="shape"/>
</filter>
<filter id="filter10_d_2_79" x="310.504" y="0" width="51.4517" height="70.4275" filterUnits="userSpaceOnUse" color-interpolation-filters="sRGB">
<feFlood flood-opacity="0" result="BackgroundImageFix"/>
<feColorMatrix in="SourceAlpha" type="matrix" values="0 0 0 0 0 0 0 0 0 0 0 0 0 0 0 0 0 0 127 0" result="hardAlpha"/>
<feOffset dy="3"/>
<feGaussianBlur stdDeviation="5"/>
<feComposite in2="hardAlpha" operator="out"/>
<feColorMatrix type="matrix" values="0 0 0 0 0.0666667 0 0 0 0 0.0862745 0 0 0 0 0.192157 0 0 0 0.83 0"/>
<feBlend mode="normal" in2="BackgroundImageFix" result="effect1_dropShadow_2_79"/>
<feBlend mode="normal" in="SourceGraphic" in2="effect1_dropShadow_2_79" result="shape"/>
</filter>
<filter id="filter11_d_2_79" x="31.0232" y="80.5359" width="18.7876" height="24.0763" filterUnits="userSpaceOnUse" color-interpolation-filters="sRGB">
<feFlood flood-opacity="0" result="BackgroundImageFix"/>
<feColorMatrix in="SourceAlpha" type="matrix" values="0 0 0 0 0 0 0 0 0 0 0 0 0 0 0 0 0 0 127 0" result="hardAlpha"/>
<feOffset dy="2"/>
<feGaussianBlur stdDeviation="1.5"/>
<feComposite in2="hardAlpha" operator="out"/>
<feColorMatrix type="matrix" values="0 0 0 0 0.0666667 0 0 0 0 0.0862745 0 0 0 0 0.192157 0 0 0 0.77 0"/>
<feBlend mode="normal" in2="BackgroundImageFix" result="effect1_dropShadow_2_79"/>
<feBlend mode="normal" in="SourceGraphic" in2="effect1_dropShadow_2_79" result="shape"/>
</filter>
<filter id="filter12_d_2_79" x="44.8605" y="80.5309" width="23.308" height="24.0814" filterUnits="userSpaceOnUse" color-interpolation-filters="sRGB">
<feFlood flood-opacity="0" result="BackgroundImageFix"/>
<feColorMatrix in="SourceAlpha" type="matrix" values="0 0 0 0 0 0 0 0 0 0 0 0 0 0 0 0 0 0 127 0" result="hardAlpha"/>
<feOffset dy="2"/>
<feGaussianBlur stdDeviation="1.5"/>
<feComposite in2="hardAlpha" operator="out"/>
<feColorMatrix type="matrix" values="0 0 0 0 0.0666667 0 0 0 0 0.0862745 0 0 0 0 0.192157 0 0 0 0.77 0"/>
<feBlend mode="normal" in2="BackgroundImageFix" result="effect1_dropShadow_2_79"/>
<feBlend mode="normal" in="SourceGraphic" in2="effect1_dropShadow_2_79" result="shape"/>
</filter>
<filter id="filter13_d_2_79" x="63.4342" y="80.1432" width="24.5234" height="24.8568" filterUnits="userSpaceOnUse" color-interpolation-filters="sRGB">
<feFlood flood-opacity="0" result="BackgroundImageFix"/>
<feColorMatrix in="SourceAlpha" type="matrix" values="0 0 0 0 0 0 0 0 0 0 0 0 0 0 0 0 0 0 127 0" result="hardAlpha"/>
<feOffset dy="2"/>
<feGaussianBlur stdDeviation="1.5"/>
<feComposite in2="hardAlpha" operator="out"/>
<feColorMatrix type="matrix" values="0 0 0 0 0.0666667 0 0 0 0 0.0862745 0 0 0 0 0.192157 0 0 0 0.77 0"/>
<feBlend mode="normal" in2="BackgroundImageFix" result="effect1_dropShadow_2_79"/>
<feBlend mode="normal" in="SourceGraphic" in2="effect1_dropShadow_2_79" result="shape"/>
</filter>
<filter id="filter14_d_2_79" x="83.4092" y="80.5309" width="30.631" height="24.313" filterUnits="userSpaceOnUse" color-interpolation-filters="sRGB">
<feFlood flood-opacity="0" result="BackgroundImageFix"/>
<feColorMatrix in="SourceAlpha" type="matrix" values="0 0 0 0 0 0 0 0 0 0 0 0 0 0 0 0 0 0 127 0" result="hardAlpha"/>
<feOffset dy="2"/>
<feGaussianBlur stdDeviation="1.5"/>
<feComposite in2="hardAlpha" operator="out"/>
<feColorMatrix type="matrix" values="0 0 0 0 0.0666667 0 0 0 0 0.0862745 0 0 0 0 0.192157 0 0 0 0.77 0"/>
<feBlend mode="normal" in2="BackgroundImageFix" result="effect1_dropShadow_2_79"/>
<feBlend mode="normal" in="SourceGraphic" in2="effect1_dropShadow_2_79" result="shape"/>
</filter>
<filter id="filter15_d_2_79" x="115.142" y="80.5359" width="23.4134" height="24.0763" filterUnits="userSpaceOnUse" color-interpolation-filters="sRGB">
<feFlood flood-opacity="0" result="BackgroundImageFix"/>
<feColorMatrix in="SourceAlpha" type="matrix" values="0 0 0 0 0 0 0 0 0 0 0 0 0 0 0 0 0 0 127 0" result="hardAlpha"/>
<feOffset dy="2"/>
<feGaussianBlur stdDeviation="1.5"/>
<feComposite in2="hardAlpha" operator="out"/>
<feColorMatrix type="matrix" values="0 0 0 0 0.0666667 0 0 0 0 0.0862745 0 0 0 0 0.192157 0 0 0 0.77 0"/>
<feBlend mode="normal" in2="BackgroundImageFix" result="effect1_dropShadow_2_79"/>
<feBlend mode="normal" in="SourceGraphic" in2="effect1_dropShadow_2_79" result="shape"/>
</filter>
<filter id="filter16_d_2_79" x="134.017" y="80.1432" width="24.5234" height="24.8568" filterUnits="userSpaceOnUse" color-interpolation-filters="sRGB">
<feFlood flood-opacity="0" result="BackgroundImageFix"/>
<feColorMatrix in="SourceAlpha" type="matrix" values="0 0 0 0 0 0 0 0 0 0 0 0 0 0 0 0 0 0 127 0" result="hardAlpha"/>
<feOffset dy="2"/>
<feGaussianBlur stdDeviation="1.5"/>
<feComposite in2="hardAlpha" operator="out"/>
<feColorMatrix type="matrix" values="0 0 0 0 0.0666667 0 0 0 0 0.0862745 0 0 0 0 0.192157 0 0 0 0.77 0"/>
<feBlend mode="normal" in2="BackgroundImageFix" result="effect1_dropShadow_2_79"/>
<feBlend mode="normal" in="SourceGraphic" in2="effect1_dropShadow_2_79" result="shape"/>
</filter>
<filter id="filter17_d_2_79" x="153.701" y="80.5359" width="24.0312" height="24.4691" filterUnits="userSpaceOnUse" color-interpolation-filters="sRGB">
<feFlood flood-opacity="0" result="BackgroundImageFix"/>
<feColorMatrix in="SourceAlpha" type="matrix" values="0 0 0 0 0 0 0 0 0 0 0 0 0 0 0 0 0 0 127 0" result="hardAlpha"/>
<feOffset dy="2"/>
<feGaussianBlur stdDeviation="1.5"/>
<feComposite in2="hardAlpha" operator="out"/>
<feColorMatrix type="matrix" values="0 0 0 0 0.0666667 0 0 0 0 0.0862745 0 0 0 0 0.192157 0 0 0 0.77 0"/>
<feBlend mode="normal" in2="BackgroundImageFix" result="effect1_dropShadow_2_79"/>
<feBlend mode="normal" in="SourceGraphic" in2="effect1_dropShadow_2_79" result="shape"/>
</filter>
<filter id="filter18_d_2_79" x="172.32" y="80.5309" width="23.308" height="24.0814" filterUnits="userSpaceOnUse" color-interpolation-filters="sRGB">
<feFlood flood-opacity="0" result="BackgroundImageFix"/>
<feColorMatrix in="SourceAlpha" type="matrix" values="0 0 0 0 0 0 0 0 0 0 0 0 0 0 0 0 0 0 127 0" result="hardAlpha"/>
<feOffset dy="2"/>
<feGaussianBlur stdDeviation="1.5"/>
<feComposite in2="hardAlpha" operator="out"/>
<feColorMatrix type="matrix" values="0 0 0 0 0.0666667 0 0 0 0 0.0862745 0 0 0 0 0.192157 0 0 0 0.77 0"/>
<feBlend mode="normal" in2="BackgroundImageFix" result="effect1_dropShadow_2_79"/>
<feBlend mode="normal" in="SourceGraphic" in2="effect1_dropShadow_2_79" result="shape"/>
</filter>
<filter id="filter19_d_2_79" x="196.679" y="80.5309" width="23.8554" height="24.0814" filterUnits="userSpaceOnUse" color-interpolation-filters="sRGB">
<feFlood flood-opacity="0" result="BackgroundImageFix"/>
<feColorMatrix in="SourceAlpha" type="matrix" values="0 0 0 0 0 0 0 0 0 0 0 0 0 0 0 0 0 0 127 0" result="hardAlpha"/>
<feOffset dy="2"/>
<feGaussianBlur stdDeviation="1.5"/>
<feComposite in2="hardAlpha" operator="out"/>
<feColorMatrix type="matrix" values="0 0 0 0 0.0666667 0 0 0 0 0.0862745 0 0 0 0 0.192157 0 0 0 0.77 0"/>
<feBlend mode="normal" in2="BackgroundImageFix" result="effect1_dropShadow_2_79"/>
<feBlend mode="normal" in="SourceGraphic" in2="effect1_dropShadow_2_79" result="shape"/>
</filter>
<filter id="filter20_d_2_79" x="216.87" y="80.1432" width="24.5234" height="24.8568" filterUnits="userSpaceOnUse" color-interpolation-filters="sRGB">
<feFlood flood-opacity="0" result="BackgroundImageFix"/>
<feColorMatrix in="SourceAlpha" type="matrix" values="0 0 0 0 0 0 0 0 0 0 0 0 0 0 0 0 0 0 127 0" result="hardAlpha"/>
<feOffset dy="2"/>
<feGaussianBlur stdDeviation="1.5"/>
<feComposite in2="hardAlpha" operator="out"/>
<feColorMatrix type="matrix" values="0 0 0 0 0.0666667 0 0 0 0 0.0862745 0 0 0 0 0.192157 0 0 0 0.77 0"/>
<feBlend mode="normal" in2="BackgroundImageFix" result="effect1_dropShadow_2_79"/>
<feBlend mode="normal" in="SourceGraphic" in2="effect1_dropShadow_2_79" result="shape"/>
</filter>
<filter id="filter21_d_2_79" x="237.739" y="80.1432" width="24.5234" height="24.8568" filterUnits="userSpaceOnUse" color-interpolation-filters="sRGB">
<feFlood flood-opacity="0" result="BackgroundImageFix"/>
<feColorMatrix in="SourceAlpha" type="matrix" values="0 0 0 0 0 0 0 0 0 0 0 0 0 0 0 0 0 0 127 0" result="hardAlpha"/>
<feOffset dy="2"/>
<feGaussianBlur stdDeviation="1.5"/>
<feComposite in2="hardAlpha" operator="out"/>
<feColorMatrix type="matrix" values="0 0 0 0 0.0666667 0 0 0 0 0.0862745 0 0 0 0 0.192157 0 0 0 0.77 0"/>
<feBlend mode="normal" in2="BackgroundImageFix" result="effect1_dropShadow_2_79"/>
<feBlend mode="normal" in="SourceGraphic" in2="effect1_dropShadow_2_79" result="shape"/>
</filter>
<filter id="filter22_d_2_79" x="258.036" y="80.5309" width="23.308" height="24.0814" filterUnits="userSpaceOnUse" color-interpolation-filters="sRGB">
<feFlood flood-opacity="0" result="BackgroundImageFix"/>
<feColorMatrix in="SourceAlpha" type="matrix" values="0 0 0 0 0 0 0 0 0 0 0 0 0 0 0 0 0 0 127 0" result="hardAlpha"/>
<feOffset dy="2"/>
<feGaussianBlur stdDeviation="1.5"/>
<feComposite in2="hardAlpha" operator="out"/>
<feColorMatrix type="matrix" values="0 0 0 0 0.0666667 0 0 0 0 0.0862745 0 0 0 0 0.192157 0 0 0 0.77 0"/>
<feBlend mode="normal" in2="BackgroundImageFix" result="effect1_dropShadow_2_79"/>
<feBlend mode="normal" in="SourceGraphic" in2="effect1_dropShadow_2_79" result="shape"/>
</filter>
<filter id="filter23_d_2_79" x="276.303" y="80.1382" width="16.5425" height="24.8568" filterUnits="userSpaceOnUse" color-interpolation-filters="sRGB">
<feFlood flood-opacity="0" result="BackgroundImageFix"/>
<feColorMatrix in="SourceAlpha" type="matrix" values="0 0 0 0 0 0 0 0 0 0 0 0 0 0 0 0 0 0 127 0" result="hardAlpha"/>
<feOffset dy="2"/>
<feGaussianBlur stdDeviation="1.5"/>
<feComposite in2="hardAlpha" operator="out"/>
<feColorMatrix type="matrix" values="0 0 0 0 0.0666667 0 0 0 0 0.0862745 0 0 0 0 0.192157 0 0 0 0.77 0"/>
<feBlend mode="normal" in2="BackgroundImageFix" result="effect1_dropShadow_2_79"/>
<feBlend mode="normal" in="SourceGraphic" in2="effect1_dropShadow_2_79" result="shape"/>
</filter>
<filter id="filter24_d_2_79" x="287.795" y="79.8109" width="22.3838" height="24.8014" filterUnits="userSpaceOnUse" color-interpolation-filters="sRGB">
<feFlood flood-opacity="0" result="BackgroundImageFix"/>
<feColorMatrix in="SourceAlpha" type="matrix" values="0 0 0 0 0 0 0 0 0 0 0 0 0 0 0 0 0 0 127 0" result="hardAlpha"/>
<feOffset dy="2"/>
<feGaussianBlur stdDeviation="1.5"/>
<feComposite in2="hardAlpha" operator="out"/>
<feColorMatrix type="matrix" values="0 0 0 0 0.0666667 0 0 0 0 0.0862745 0 0 0 0 0.192157 0 0 0 0.77 0"/>
<feBlend mode="normal" in2="BackgroundImageFix" result="effect1_dropShadow_2_79"/>
<feBlend mode="normal" in="SourceGraphic" in2="effect1_dropShadow_2_79" result="shape"/>
</filter>
<filter id="filter25_d_2_79" x="304.756" y="80.5359" width="20.5455" height="24.0864" filterUnits="userSpaceOnUse" color-interpolation-filters="sRGB">
<feFlood flood-opacity="0" result="BackgroundImageFix"/>
<feColorMatrix in="SourceAlpha" type="matrix" values="0 0 0 0 0 0 0 0 0 0 0 0 0 0 0 0 0 0 127 0" result="hardAlpha"/>
<feOffset dy="2"/>
<feGaussianBlur stdDeviation="1.5"/>
<feComposite in2="hardAlpha" operator="out"/>
<feColorMatrix type="matrix" values="0 0 0 0 0.0666667 0 0 0 0 0.0862745 0 0 0 0 0.192157 0 0 0 0.77 0"/>
<feBlend mode="normal" in2="BackgroundImageFix" result="effect1_dropShadow_2_79"/>
<feBlend mode="normal" in="SourceGraphic" in2="effect1_dropShadow_2_79" result="shape"/>
</filter>
<filter id="filter26_d_2_79" x="319.744" y="80.5359" width="18.9132" height="24.0763" filterUnits="userSpaceOnUse" color-interpolation-filters="sRGB">
<feFlood flood-opacity="0" result="BackgroundImageFix"/>
<feColorMatrix in="SourceAlpha" type="matrix" values="0 0 0 0 0 0 0 0 0 0 0 0 0 0 0 0 0 0 127 0" result="hardAlpha"/>
<feOffset dy="2"/>
<feGaussianBlur stdDeviation="1.5"/>
<feComposite in2="hardAlpha" operator="out"/>
<feColorMatrix type="matrix" values="0 0 0 0 0.0666667 0 0 0 0 0.0862745 0 0 0 0 0.192157 0 0 0 0.77 0"/>
<feBlend mode="normal" in2="BackgroundImageFix" result="effect1_dropShadow_2_79"/>
<feBlend mode="normal" in="SourceGraphic" in2="effect1_dropShadow_2_79" result="shape"/>
</filter>
<filter id="filter27_d_2_79" x="243.375" y="24.7944" width="40.0022" height="39.8002" filterUnits="userSpaceOnUse" color-interpolation-filters="sRGB">
<feFlood flood-opacity="0" result="BackgroundImageFix"/>
<feColorMatrix in="SourceAlpha" type="matrix" values="0 0 0 0 0 0 0 0 0 0 0 0 0 0 0 0 0 0 127 0" result="hardAlpha"/>
<feOffset dy="2"/>
<feGaussianBlur stdDeviation="1"/>
<feComposite in2="hardAlpha" operator="out"/>
<feColorMatrix type="matrix" values="0 0 0 0 0.0666667 0 0 0 0 0.0862745 0 0 0 0 0.192157 0 0 0 0.83 0"/>
<feBlend mode="normal" in2="BackgroundImageFix" result="effect1_dropShadow_2_79"/>
<feBlend mode="normal" in="SourceGraphic" in2="effect1_dropShadow_2_79" result="shape"/>
</filter>
<radialGradient id="paint0_radial_2_79" cx="0" cy="0" r="1" gradientUnits="userSpaceOnUse" gradientTransform="translate(-nan -nan) rotate(-nan) scale(-nan -nan)">
<stop stop-color="white"/>
<stop offset="1" stop-color="white" stop-opacity="0"/>
</radialGradient>
</defs>
</svg>
