<svg width="683" height="185" viewBox="0 0 683 185" fill="none" xmlns="http://www.w3.org/2000/svg">
<g clip-path="url(#clip0_2_2)">
<path d="M1.32001 126.35H682.91" stroke="url(#paint0_radial_2_2)" stroke-width="3.21" stroke-miterlimit="10"/>
<path d="M0 77.01H2.96C5.15 86.65 12.35 96.04 23.02 96.04C32.92 96.04 40.63 89.1 40.63 78.94C40.63 55.03 2.57 62.1 2.57 31.75C2.57 15.17 14.4 6.56 30.08 6.56C35.35 6.56 40.62 7.72 45.77 8.49L47.83 24.95H44.87C43.46 15.95 37.54 10.68 28.29 10.68C18.52 10.68 12.86 17.75 12.86 27.14C12.86 51.05 52.46 44.5 52.46 74.06C52.46 90.77 37.42 100.16 22.25 100.16C15.56 100.16 8.62 98.62 2.58 95.79L0 77.01Z" fill="white"/>
<path d="M66.59 62.74C66.33 63.9 66.33 65.82 66.59 70.2C67.36 82.41 75.2 92.44 85.49 92.44C92.56 92.44 98.09 88.58 102.85 83.83L104.65 85.63C98.74 93.47 91.41 100.16 80.87 100.16C60.43 100.16 56.31 80.36 56.31 72.13C56.31 46.93 73.28 39.47 82.28 39.47C92.69 39.47 103.88 46.03 104.01 59.65C104.01 60.42 104.01 61.19 103.88 61.96L102.72 62.73H66.59V62.74ZM89.35 58.63C92.56 58.63 92.95 56.96 92.95 55.42C92.95 48.86 88.97 43.59 81.77 43.59C73.93 43.59 68.53 49.37 66.99 58.63H89.36H89.35Z" fill="white"/>
<path d="M117.24 62.74C116.98 63.9 116.98 65.82 117.24 70.2C118.01 82.41 125.85 92.44 136.14 92.44C143.21 92.44 148.74 88.58 153.5 83.83L155.3 85.63C149.39 93.47 142.06 100.16 131.52 100.16C111.08 100.16 106.96 80.36 106.96 72.13C106.96 46.93 123.93 39.47 132.93 39.47C143.34 39.47 154.53 46.03 154.66 59.65C154.66 60.42 154.66 61.19 154.53 61.96L153.37 62.73H117.24V62.74ZM140 58.63C143.21 58.63 143.6 56.96 143.6 55.42C143.6 48.86 139.62 43.59 132.42 43.59C124.58 43.59 119.18 49.37 117.64 58.63H140.01H140Z" fill="white"/>
<path d="M203.76 82.41C203.76 90.89 208.39 93.21 211.86 93.21C215.33 93.21 217.9 92.05 220.86 89.48L222.79 91.41C218.29 96.04 212.63 100.15 205.69 100.15C197.46 100.15 193.48 95.78 193.48 88.19V48.34H185V46.28C191.68 41.14 195.67 38.7 202.23 28.28H203.77V41.39H222.93V48.33H203.77V82.4L203.76 82.41Z" fill="white"/>
<path d="M230.88 19.03C230.88 10.67 228.95 10.42 224.07 9V6.94C229.21 5.27 234.61 2.96 237.31 1.41C238.73 0.64 239.75 0 240.14 0C240.91 0 241.17 0.77 241.17 1.8V50.78C242.33 49.75 250.56 39.47 260.97 39.47C272.16 39.47 278.2 47.7 278.2 58.88V90.63C278.2 94.87 281.03 94.87 284.63 94.87H286.94V98.21C282.44 98.21 277.94 97.95 273.05 97.95C268.42 97.95 263.79 98.08 259.17 98.21V94.87H261.48C267.52 94.87 267.91 93.46 267.91 80.86V66.33C267.91 56.94 267.01 47.17 255.31 47.17C249.27 47.17 244.12 51.67 241.17 54.37V90.62C241.17 94.86 244 94.86 247.6 94.86H249.91V98.2C245.41 98.2 240.91 97.94 236.28 97.94C231.65 97.94 227.02 98.07 222.4 98.2V94.86H224.71C228.31 94.86 230.88 94.86 230.88 90.62V19.03V19.03Z" fill="white"/>
<path d="M298.63 62.74C298.37 63.9 298.37 65.82 298.63 70.2C299.4 82.41 307.24 92.44 317.53 92.44C324.6 92.44 330.13 88.58 334.89 83.83L336.69 85.63C330.78 93.47 323.45 100.16 312.91 100.16C292.47 100.16 288.35 80.36 288.35 72.13C288.35 46.93 305.32 39.47 314.32 39.47C324.73 39.47 335.92 46.03 336.05 59.65C336.05 60.42 336.05 61.19 335.92 61.96L334.76 62.73H298.63V62.74ZM321.39 58.63C324.6 58.63 324.99 56.96 324.99 55.42C324.99 48.86 321 43.59 313.81 43.59C305.97 43.59 300.57 49.37 299.03 58.63H321.4H321.39Z" fill="white"/>
<path d="M423.84 55.28L408.54 19.8C405.58 12.99 404.43 11.83 396.33 11.83V8.49C402.37 8.62 408.29 8.75 414.2 8.75C418.57 8.75 423.33 8.49 427.57 8.49V11.83C425.26 11.83 420.5 11.96 420.5 15.05C420.5 16.08 421.4 18.65 421.92 19.94L430.28 41.41L438.38 23.8C439.92 20.46 440.69 18.01 440.69 15.96C440.69 11.85 437.61 11.85 432.08 11.85V8.51C436.84 8.64 442.11 8.77 446.86 8.77C450.33 8.77 454.44 8.51 458.05 8.51V11.85C451.36 11.85 448.79 15.07 446.35 20.08L433.24 47.59L448.67 83.2L470.14 24.45C472.33 18.66 472.45 16.99 472.45 16.09C472.45 13.78 471.16 11.98 462.81 11.85V8.51C467.57 8.64 472.45 8.77 477.21 8.77C480.42 8.77 484.15 8.51 487.49 8.51V11.85C481.45 11.85 480.03 15.45 477.98 20.72L447.25 100.17H443.91L426.55 61.34L408.42 100.17H404.82L372.94 22C369.98 14.93 368.44 11.84 359.44 11.84V8.5C365.1 8.63 371.4 8.76 377.05 8.76C381.94 8.76 387.34 8.5 392.22 8.5V11.84C386.31 11.84 384.25 13 384.25 14.8C384.25 16.09 384.25 17.11 385.67 20.71L410.87 83.19L423.85 55.29L423.84 55.28Z" fill="white"/>
<path d="M543.01 94.88H546.48C550.08 94.88 552.65 94.88 552.65 90.64V54.51C552.65 50.52 547.89 49.75 545.96 48.72V46.79C555.35 42.8 560.49 39.46 561.64 39.46C562.41 39.46 562.8 39.85 562.8 41.13V52.7H563.06C566.27 47.69 571.67 39.46 579.52 39.46C582.73 39.46 586.85 41.65 586.85 46.27C586.85 49.74 584.41 52.83 580.81 52.83C576.83 52.83 576.83 49.74 572.33 49.74C570.14 49.74 562.94 52.7 562.94 60.41V90.62C562.94 94.86 565.51 94.86 569.11 94.86H576.31V98.2C569.24 98.07 563.84 97.94 558.31 97.94C552.78 97.94 547.64 98.07 543.01 98.2V94.86V94.88Z" fill="white"/>
<path d="M587.62 94.88H590.06C593.66 94.88 596.23 94.88 596.23 90.64V19.03C596.23 10.67 594.3 10.42 589.42 9V6.94C594.56 5.27 599.96 2.96 602.66 1.41C604.07 0.64 605.1 0 605.49 0C606.26 0 606.52 0.77 606.52 1.8V90.64C606.52 94.88 609.35 94.88 612.95 94.88H615.14V98.22C610.77 98.22 606.27 97.96 601.64 97.96C597.01 97.96 592.38 98.09 587.63 98.22V94.88H587.62Z" fill="white"/>
<path d="M672.34 87.17C672.34 92.44 673.63 92.44 678.64 92.44H680.83V95.01H680.7C678.77 95.4 675.3 96.42 671.57 97.58C667.58 98.87 664.24 100.15 663.47 100.15C662.18 100.15 662.05 98.22 662.05 96.68V90.77H661.79C657.16 95.53 649.96 100.15 642.12 100.15C626.69 100.15 618.21 86.65 618.21 72.25C618.21 54.89 632.22 39.47 649.96 39.47C654.07 39.47 658.32 40.24 662.04 41.78V19.03C662.04 10.67 660.11 10.42 655.23 9V6.94C660.37 5.27 665.77 2.96 668.47 1.41C669.88 0.64 670.91 0 671.3 0C672.07 0 672.33 0.77 672.33 1.8V87.17H672.34ZM662.06 55.42C662.06 45.91 654.09 43.59 648.43 43.59C639.3 43.59 629.27 50.4 629.27 67.76C629.27 81.9 637.88 92.44 649.58 92.44C653.44 92.44 662.05 89.61 662.05 84.85V55.41L662.06 55.42Z" fill="white"/>
<path d="M47.83 148.03C51.79 148.03 55.75 148.13 59.76 148.13C64.13 148.13 68.55 148.13 72.98 148.03L73.29 155.28L72.11 155.49C71.65 151.17 69.38 149.68 64.04 149.68H57.77V164.29H63.99C67.9 164.29 68.46 163.72 69.08 160.02H70.26C70.11 161.97 70.05 163.93 70.05 165.57C70.05 167.88 70.2 170.66 70.26 171.07H69.23C68.66 167.37 68.3 166.39 64.14 166.39H57.76V178.89C57.76 182.9 60.33 182.44 62.44 182.59V183.93C59.82 183.88 57.25 183.83 54.67 183.83C52.41 183.83 50.09 183.88 47.83 183.93V182.59C51.89 182.59 52.72 182.02 52.72 177.34V153.79C52.72 149.88 51.95 149.47 47.83 149.37V148.03Z" fill="white"/>
<path d="M75.39 148.03C77.86 148.08 80.38 148.13 83 148.13C85.78 148.13 86.04 148.03 90.25 148.03C98.02 148.03 101.97 151.89 101.97 157.13C101.97 160.99 99.3 164.54 94.67 165.92L100.84 175.13C101.87 176.62 102.9 178.11 104.03 179.35C106.04 181.61 107.63 182.64 109.84 182.59V183.93C108.5 183.93 107.17 183.83 105.83 183.83C104.39 183.83 103 183.88 101.61 183.93C99.19 181.31 97.24 178.53 95.54 176.01C93.53 173.03 91.68 169.94 89.78 166.96H85.1V178.94C85.1 182.08 86.59 182.64 89.78 182.59V183.93C87.41 183.93 85.05 183.83 82.63 183.83C80.21 183.83 77.8 183.88 75.38 183.93V182.59C79.08 182.8 80.06 181.25 80.06 178.94V153.17C80.06 150.13 78.98 149.31 75.38 149.36V148.02L75.39 148.03ZM85.11 165.05C85.88 165.2 86.7 165.31 87.99 165.31C93.39 165.31 96.63 161.86 96.63 157.44C96.63 152.35 93.65 149.67 88.14 149.67C87.11 149.67 86.55 149.77 85.11 149.98V165.05V165.05Z" fill="white"/>
<path d="M149.24 165.77C149.24 175.44 141.73 184.7 130.72 184.7C119.71 184.7 112.36 175.65 112.36 166.18C112.36 156.71 119.92 147.25 130.88 147.25C141.17 147.25 149.24 156.04 149.24 165.76V165.77ZM131.34 183.05C138.69 183.05 143.58 176.72 143.58 167.26C143.58 159.08 138.85 148.9 130.21 148.9C123.06 148.9 118.02 155.02 118.02 164.64C118.02 173.18 122.96 183.05 131.34 183.05V183.05Z" fill="white"/>
<path d="M154.27 148.03C156.07 148.08 157.82 148.13 159.57 148.13C160.75 148.13 161.88 148.03 163.02 148.03L176.85 176.88L184.57 161.19C186.42 157.44 188.73 152.6 190.74 148.02C192.08 148.07 193.36 148.12 194.7 148.12C196.29 148.12 197.89 148.02 199.48 148.02V149.36C195.83 149.36 194.9 149.82 194.9 153.27C194.9 160.93 195.52 174.66 195.62 178.57C195.72 181.86 196.85 182.58 201.17 182.58V183.92C198.39 183.92 195.62 183.82 192.84 183.82C190.27 183.82 187.75 183.87 185.18 183.92V182.58C187.03 182.63 188.32 182.53 189.14 182.12C190.22 181.55 190.48 180.22 190.48 178.52L190.12 154.09H190.02L178.29 178.42C177.93 179.14 176.95 181.2 175.87 184.39H174.84C173.55 181.51 172.37 178.94 171.19 176.47C167.69 169.12 164.14 162.22 160.65 155.23H160.55C160.4 162.48 160.09 174.62 160.09 177.09C160.09 179.56 160.35 180.95 161.17 181.72C161.89 182.39 163.12 182.59 165.34 182.59V183.93C163.28 183.93 161.23 183.83 159.17 183.83C156.8 183.83 154.49 183.88 152.13 183.93V182.59C156.14 182.59 158.04 181.3 158.25 174.88C158.4 169.48 158.82 160.58 158.82 154.05C158.82 150.14 157.95 149.42 154.29 149.37V148.03H154.27Z" fill="white"/>
<path d="M215.31 148.03C217.78 148.08 220.09 148.13 222.15 148.13C224.93 148.13 227.29 148.03 228.73 148.03V149.37C226.88 149.37 225.85 149.68 225.85 150.45C225.8 151.07 226.78 152.51 227.55 153.64L234.75 163.77L242.57 153.07C243.03 152.4 243.5 151.48 243.5 150.86C243.5 149.37 242.37 149.37 239.85 149.37V148.03C241.6 148.08 243.4 148.13 245.2 148.13C246.8 148.13 248.49 148.03 249.98 148.03V149.37C247.87 149.47 247.1 150.5 245.71 152.35L235.89 165.62V178.63C235.89 181.97 237.07 182.59 240.57 182.59V183.93C238.05 183.88 235.53 183.83 233.01 183.83C230.7 183.83 228.43 183.88 226.17 183.93V182.59C229 182.59 230.85 182.33 230.85 178.99V166.44L220.1 151.63C218.87 149.88 218.61 149.52 215.32 149.37V148.03H215.31Z" fill="white"/>
<path d="M289.77 165.77C289.77 175.44 282.26 184.7 271.25 184.7C260.24 184.7 252.89 175.65 252.89 166.18C252.89 156.71 260.45 147.25 271.41 147.25C281.7 147.25 289.77 156.04 289.77 165.76V165.77ZM271.87 183.05C279.22 183.05 284.11 176.72 284.11 167.26C284.11 159.08 279.38 148.9 270.74 148.9C263.59 148.9 258.55 155.02 258.55 164.64C258.55 173.18 263.49 183.05 271.87 183.05V183.05Z" fill="white"/>
<path d="M292.08 148.03C294.39 148.08 296.71 148.13 299.02 148.13C301.49 148.13 304.01 148.08 306.48 148.03V149.37C302.83 149.32 301.8 150.19 301.8 153.18V170.72C301.8 178.43 305.14 182.6 311.83 182.6C318 182.6 321.19 179.1 321.19 172.62V157.45C321.19 149.53 320.83 149.48 316.3 149.37V148.03C318.31 148.08 320.31 148.13 322.32 148.13C324.22 148.13 326.07 148.03 327.98 148.03V149.37C324.33 149.37 323.92 150.91 323.92 156.06V172.52C323.92 179.62 319.34 184.71 310.5 184.71C301.66 184.71 296.77 180.08 296.77 171.65V153.13C296.77 150.25 295.74 149.32 292.09 149.38V148.04L292.08 148.03Z" fill="white"/>
<path d="M329.16 148.03C331.63 148.08 334.15 148.13 336.77 148.13C339.55 148.13 339.81 148.03 344.02 148.03C351.79 148.03 355.74 151.89 355.74 157.13C355.74 160.99 353.07 164.54 348.44 165.92L354.61 175.13C355.64 176.62 356.67 178.11 357.8 179.35C359.81 181.61 361.4 182.64 363.61 182.59V183.93C362.27 183.93 360.94 183.83 359.6 183.83C358.16 183.83 356.77 183.88 355.38 183.93C352.96 181.31 351.01 178.53 349.31 176.01C347.3 173.03 345.45 169.94 343.55 166.96H338.87V178.94C338.87 182.08 340.36 182.64 343.55 182.59V183.93C341.18 183.93 338.82 183.83 336.4 183.83C333.98 183.83 331.57 183.88 329.15 183.93V182.59C332.85 182.8 333.83 181.25 333.83 178.94V153.17C333.83 150.13 332.75 149.31 329.15 149.36V148.02L329.16 148.03ZM338.88 165.05C339.65 165.2 340.47 165.31 341.76 165.31C347.16 165.31 350.4 161.86 350.4 157.44C350.4 152.35 347.42 149.67 341.91 149.67C340.88 149.67 340.32 149.77 338.88 149.98V165.05V165.05Z" fill="white"/>
<path d="M377.65 148.03C379.71 148.13 381.82 148.13 383.98 148.13C385.83 148.13 389.59 148.03 392.47 148.03C406.25 148.03 413.2 157.18 413.2 166.03C413.2 172.2 409.29 183.93 392.11 183.93C389.54 183.93 386.71 183.83 384.24 183.83C382.03 183.83 379.82 183.88 377.66 183.93V182.59C380.75 182.28 382.39 182.18 382.39 178.68V153.89C382.39 150.7 381.52 149.36 378.53 149.36H377.66V148.02L377.65 148.03ZM387.42 177.86C387.42 181.82 390.25 182.28 392.82 182.28C403.05 182.28 407.53 174.93 407.53 166.23C407.53 156.56 401.31 149.67 391.43 149.67C389.42 149.67 388.45 149.82 387.42 149.88V177.86V177.86Z" fill="white"/>
<path d="M454.73 165.77C454.73 175.44 447.22 184.7 436.21 184.7C425.2 184.7 417.85 175.65 417.85 166.18C417.85 156.71 425.41 147.25 436.37 147.25C446.66 147.25 454.73 156.04 454.73 165.76V165.77ZM436.83 183.05C444.18 183.05 449.07 176.72 449.07 167.26C449.07 159.08 444.34 148.9 435.7 148.9C428.55 148.9 423.51 155.02 423.51 164.64C423.51 173.18 428.45 183.05 436.83 183.05V183.05Z" fill="white"/>
<path d="M496.28 165.77C496.28 175.44 488.77 184.7 477.76 184.7C466.75 184.7 459.4 175.65 459.4 166.18C459.4 156.71 466.96 147.25 477.92 147.25C488.21 147.25 496.28 156.04 496.28 165.76V165.77ZM478.38 183.05C485.73 183.05 490.62 176.72 490.62 167.26C490.62 159.08 485.89 148.9 477.25 148.9C470.1 148.9 465.06 155.02 465.06 164.64C465.06 173.18 470 183.05 478.38 183.05V183.05Z" fill="white"/>
<path d="M499.82 148.03C502.29 148.08 504.81 148.13 507.43 148.13C510.21 148.13 510.47 148.03 514.68 148.03C522.45 148.03 526.4 151.89 526.4 157.13C526.4 160.99 523.73 164.54 519.1 165.92L525.27 175.13C526.3 176.62 527.33 178.11 528.46 179.35C530.47 181.61 532.06 182.64 534.27 182.59V183.93C532.93 183.93 531.6 183.83 530.26 183.83C528.82 183.83 527.43 183.88 526.04 183.93C523.62 181.31 521.67 178.53 519.97 176.01C517.96 173.03 516.11 169.94 514.21 166.96H509.53V178.94C509.53 182.08 511.02 182.64 514.21 182.59V183.93C511.84 183.93 509.48 183.83 507.06 183.83C504.64 183.83 502.23 183.88 499.81 183.93V182.59C503.51 182.8 504.49 181.25 504.49 178.94V153.17C504.49 150.13 503.41 149.31 499.81 149.36V148.02L499.82 148.03ZM509.54 165.05C510.31 165.2 511.13 165.31 512.42 165.31C517.82 165.31 521.06 161.86 521.06 157.44C521.06 152.35 518.08 149.67 512.57 149.67C511.54 149.67 510.98 149.77 509.54 149.98V165.05V165.05Z" fill="white"/>
<path d="M554.49 148.03L555.31 154.61H554.13C553.56 150.96 551.15 148.9 547.5 148.9C543.59 148.9 541.33 151.73 541.33 155.48C541.33 165.1 557.17 162.37 557.17 174.25C557.17 180.89 551.25 184.69 545.08 184.69C542.51 184.69 539.73 184.12 537.21 182.94L536.18 175.43H537.36C538.39 179.8 541.47 183.04 545.38 183.04C549.29 183.04 552.43 180.21 552.43 176.2C552.43 166.63 537.21 169.46 537.21 157.32C537.21 150.99 541.58 147.24 548.22 147.24C550.23 147.24 552.49 147.7 554.49 148.01V148.03Z" fill="white"/>
<path d="M559.63 146.59H560.66C561.17 147.98 562.77 148.03 563.75 148.03H587.41C588.9 148.03 590.39 147.62 590.6 146.59H591.68L591.22 154.77H589.83C589.62 152.35 590.14 150.14 585.66 150.14H577.89V178.99C577.89 182.49 579.95 182.54 582.57 182.59V183.93C580.1 183.93 577.58 183.83 575.06 183.83C572.75 183.83 570.48 183.88 568.17 183.93V182.59C570.33 182.49 572.85 182.8 572.85 179.04V150.14H566.16C561.84 150.14 561.27 151.07 560.4 154.77H559.06L559.63 146.59V146.59Z" fill="white"/>
<path d="M592.84 148.03C596.08 148.13 602.05 148.13 606.68 148.13C610.43 148.13 615.47 148.08 618.05 148.03V155.69L617.02 155.95C616.3 151.22 613.93 149.68 609 149.68H602.78V164.29H609.67C612.24 164.29 613.73 162.95 613.89 159.87H614.92C614.82 161.05 614.71 163.16 614.71 165.68C614.71 167.07 614.97 169.79 614.92 171.34H613.89C613.84 167.07 612.76 166.4 609.26 166.4H602.78V175.61C602.78 181.11 603.19 182.3 608.28 182.3H611.21C613.16 182.3 614.19 182.15 614.96 181.99C617.27 181.42 619.02 180.19 620.56 175.87L621.79 176.08C620.97 178.7 620.25 181.02 619.68 183.95C614.79 183.95 609.86 183.85 604.97 183.85C600.91 183.85 596.9 183.85 592.83 183.95V182.61C597.05 182.56 597.72 182.04 597.72 177.16V153.81C597.72 150 597.05 149.49 592.83 149.39V148.05L592.84 148.03Z" fill="white"/>
<path d="M622.82 148.03C624.31 148.08 626.37 148.13 628.17 148.13C631.82 148.13 632.95 148.03 635.32 148.03C641.13 148.03 648.38 150.4 648.38 158.26C648.38 164.02 643.08 168.55 637.27 168.55C636.45 168.55 635.52 168.5 634.7 168.5V166.8C635.27 166.9 636.14 166.9 636.3 166.9C638 166.9 638.61 166.64 639.49 166.18C641.19 165.31 643.04 162.63 643.04 158.78C643.04 152.45 638.98 149.68 634.5 149.68C633.99 149.68 632.85 149.73 632.39 149.83V178.94C632.39 182.08 633.83 182.59 637.12 182.59V183.93C634.6 183.93 632.08 183.83 629.56 183.83C627.25 183.83 624.98 183.88 622.67 183.93V182.59C625.91 182.59 627.35 182.13 627.35 178.78V154.15C627.35 150.14 626.37 149.42 622.82 149.37V148.03Z" fill="white"/>
<path d="M505.48 68.3C504.07 68.3 502.93 69.44 502.93 70.84C502.93 72.24 504.07 73.39 505.48 73.39C506.89 73.39 508.03 72.25 508.03 70.84C508.03 69.43 506.89 68.3 505.48 68.3ZM505.48 72.88C504.35 72.88 503.44 71.97 503.44 70.84C503.44 69.71 504.35 68.8 505.48 68.8C506.61 68.8 507.52 69.71 507.52 70.84C507.52 71.97 506.61 72.88 505.48 72.88ZM535.04 71.12C528.03 69.64 521.03 68.17 514.02 66.69V66.64C516.59 62.7 519.16 58.77 521.72 54.83C517.76 57.41 513.8 59.99 509.83 62.57C507.38 50.87 505.46 41.64 505.39 41.55C503.94 48.52 502.5 55.5 501.05 62.47C501.02 62.49 500.98 62.5 500.95 62.52C497.02 59.96 493.09 57.4 489.17 54.83C491.7 58.73 494.24 62.64 496.77 66.54C496.8 66.57 496.84 66.61 496.87 66.64C489.88 68.12 482.89 69.59 475.9 71.07C482.85 72.55 489.81 74.02 496.76 75.5H496.86C494.33 79.38 491.79 83.27 489.26 87.16C489.23 87.21 489.19 87.26 489.16 87.31C493.1 84.75 497.05 82.19 500.99 79.62C502.45 86.63 503.91 93.64 505.38 100.64C506.86 93.63 508.34 86.62 509.82 79.62H509.87C513.81 82.2 517.76 84.78 521.7 87.36C519.13 83.42 516.56 79.49 514 75.55C521.01 74.07 528.01 72.6 535.02 71.12H535.04ZM512.59 61.4C515.02 59.79 517.45 58.18 519.88 56.56C516.77 59.68 513.66 62.8 510.54 65.93C510.35 65.03 510.17 64.13 509.98 63.23C510.14 62.68 512.04 61.75 512.58 61.4H512.59ZM490.86 56.56H490.91C494.04 59.7 497.17 62.84 500.3 65.98C499.35 66.17 498.4 66.35 497.44 66.54C495.25 63.21 493.05 59.89 490.86 56.56ZM490.91 85.63C494.02 82.51 497.13 79.39 500.25 76.26C500.47 77.21 500.69 78.16 500.91 79.11C497.58 81.28 494.24 83.45 490.91 85.63V85.63ZM505.5 97.54C505.49 90.51 505.47 83.47 505.46 76.44C503.97 76.44 502.61 75.85 501.61 74.89L500.86 75.65C493.6 74.14 486.34 72.63 479.08 71.12H499.88C499.88 71.03 499.87 70.93 499.87 70.84C499.87 69.36 500.45 68.01 501.39 67.01L500.86 66.49C502.37 59.18 503.89 51.86 505.4 44.55C505.41 51.45 505.43 58.35 505.44 65.24C505.45 65.24 505.46 65.24 505.48 65.24C507.08 65.24 508.53 65.91 509.55 66.99L510.05 66.49C517.34 68 524.64 69.51 531.93 71.02C524.98 71.03 518.03 71.05 511.08 71.06C511.02 72.58 510.35 73.95 509.31 74.93C509.56 75.17 509.8 75.41 510.05 75.66C508.54 82.96 507.02 90.25 505.51 97.55L505.5 97.54ZM520.04 85.63C516.89 82.49 513.75 79.35 510.6 76.21C511.52 76.01 513.02 75.76 513.58 75.65C513.84 75.91 518.46 83.23 520.04 85.63ZM505.48 65.75C502.66 65.75 500.38 68.03 500.38 70.84C500.38 73.65 502.66 75.93 505.48 75.93C508.3 75.93 510.58 73.65 510.58 70.84C510.58 68.03 508.3 65.75 505.48 65.75ZM505.48 74.91C503.23 74.91 501.4 73.09 501.4 70.84C501.4 68.59 503.23 66.77 505.48 66.77C507.73 66.77 509.56 68.59 509.56 70.84C509.56 73.09 507.73 74.91 505.48 74.91ZM505.48 69.31C504.63 69.31 503.95 69.99 503.95 70.84C503.95 71.69 504.64 72.37 505.48 72.37C506.32 72.37 507.01 71.69 507.01 70.84C507.01 69.99 506.32 69.31 505.48 69.31Z" fill="#D0D6EB"/>
<path d="M478.68 53.44L480.84 54.87L481.41 54.01L479.25 52.58L478.68 53.44ZM483.79 51L481.84 49.3L481.16 50.08L483.11 51.78L483.79 51ZM474.14 65.02L476.68 65.52L476.88 64.5L474.34 64L474.14 65.02ZM476.66 57.09L478.99 58.23L479.45 57.3L477.12 56.16L476.66 57.09ZM475.14 60.97L477.6 61.8L477.93 60.82L475.47 59.99L475.14 60.97ZM520.05 70.89C520.05 62.59 513.32 55.85 505.01 55.85C496.7 55.85 489.97 62.58 489.97 70.89C489.97 79.2 496.7 85.93 505.01 85.93C513.32 85.93 520.05 79.2 520.05 70.89V70.89ZM491.53 70.89C491.53 63.44 497.57 57.4 505.02 57.4C512.47 57.4 518.51 63.44 518.51 70.89C518.51 78.34 512.47 84.38 505.02 84.38C497.57 84.38 491.53 78.34 491.53 70.89ZM484.19 94.34L484.97 95.02L486.67 93.07L485.89 92.39L484.19 94.34ZM524.2 70.89C524.2 60.29 515.61 51.71 505.02 51.71C494.43 51.71 485.84 60.3 485.84 70.89C485.84 81.48 494.43 90.07 505.02 90.07C515.61 90.07 524.2 81.48 524.2 70.89V70.89ZM486.34 70.89C486.34 60.58 494.7 52.22 505.01 52.22C515.32 52.22 523.68 60.58 523.68 70.89C523.68 81.2 515.32 89.56 505.01 89.56C494.7 89.56 486.34 81.2 486.34 70.89ZM531.46 70.89C531.46 56.29 519.62 44.45 505.02 44.45C490.42 44.45 478.58 56.29 478.58 70.89C478.58 85.49 490.42 97.33 505.02 97.33C519.62 97.33 531.46 85.49 531.46 70.89ZM479.09 70.89C479.09 56.57 490.7 44.97 505.01 44.97C519.32 44.97 530.93 56.58 530.93 70.89C530.93 85.2 519.32 96.81 505.01 96.81C490.7 96.81 479.09 85.2 479.09 70.89ZM473.61 67.41C474.57 57.87 479.79 49.62 487.3 44.48L488.74 46.63L489.6 46.05L488.16 43.9C489.04 43.34 489.94 42.81 490.88 42.33L492.03 44.64L492.96 44.18L491.81 41.87C492.75 41.43 493.71 41.02 494.7 40.67L495.54 43.11L496.52 42.77L495.68 40.32C496.67 40.01 497.68 39.74 498.71 39.53L499.22 42.04L500.24 41.83L499.73 39.33C500.05 39.27 500.37 39.22 500.69 39.17C502.19 38.95 502.1 37.33 500.56 37.55C485.41 39.68 473.52 51.97 471.99 67.3C472.05 67.53 473.59 67.49 473.61 67.42V67.41ZM504.11 36.85L506.24 40.56H507.33V35.34H506.31V38.98L504.24 35.34H503.1V40.56H504.12V36.85H504.11ZM509.09 39.06C509.78 39.14 510.45 39.27 511.12 39.39L510.65 41.79L511.67 41.99L512.14 39.59C513.16 39.81 514.16 40.1 515.14 40.42L514.37 42.71L515.35 43.04L516.12 40.76C517.1 41.12 518.06 41.51 518.99 41.95L517.94 44.1L518.87 44.56L519.91 42.43C520.83 42.91 521.73 43.44 522.59 44L521.29 45.95L522.15 46.52L523.45 44.56C524.3 45.15 525.12 45.79 525.9 46.46L524.37 48.22L525.15 48.9L526.67 47.16C527.43 47.86 528.17 48.59 528.86 49.35L527.14 50.87L527.83 51.65L529.56 50.12C530.23 50.91 530.84 51.73 531.43 52.59L529.54 53.86L530.12 54.72L532.01 53.45C532.57 54.32 533.1 55.2 533.57 56.13L531.53 57.15L531.99 58.08L534.02 57.07C534.46 58 534.85 58.95 535.2 59.93L533.07 60.66L533.41 61.64L535.55 60.9C535.86 61.88 536.14 62.87 536.36 63.89L534.14 64.34L534.35 65.36L536.55 64.92C536.64 65.43 536.75 65.94 536.82 66.45C537 67.83 538.62 67.7 538.43 66.27C536.45 51.22 524.46 39.32 509.36 37.48C508.02 37.32 507.83 38.93 509.08 39.08L509.09 39.06ZM499.92 102L500.41 99.49L499.39 99.29L498.9 101.81C497.87 101.6 496.86 101.32 495.87 101.02L496.69 98.58L495.71 98.25L494.89 100.7C493.9 100.36 492.94 99.95 491.99 99.51L493.13 97.19L492.2 96.73L491.07 99.05C490.13 98.58 489.23 98.05 488.34 97.5L489.77 95.34L488.91 94.77L487.48 96.93C480.1 91.94 474.91 83.99 473.73 74.74C473.6 74.57 472.1 74.69 472.09 74.74C473.97 90.17 486.36 102.35 501.88 103.92C501.89 103.99 502.08 102.41 501.88 102.29C501.23 102.22 500.58 102.12 499.94 102.02L499.92 102ZM472.75 73.72H473.8L475.27 68.5H474.16L473.46 71.52L473.3 72.32L473.14 71.49L472.52 68.5H471.37L470.78 71.51L470.63 72.33L470.48 71.5L469.79 68.51H468.63L470.11 73.73H471.12L471.75 70.67L471.93 69.66L472.11 70.67L472.74 73.73L472.75 73.72ZM537.42 72.7V71.36H539.96V70.45H537.42V69.34H540.18V68.41H536.35V73.63H540.31V72.69H537.42V72.7ZM536.77 75.17C536.52 76.9 536.14 78.58 535.62 80.2L533.46 79.47L533.13 80.45L535.29 81.18C534.95 82.16 534.56 83.12 534.13 84.05L532.07 83.04L531.61 83.97L533.67 84.98C533.2 85.9 532.69 86.81 532.14 87.68L530.22 86.41L529.65 87.27L531.57 88.54C530.99 89.39 530.36 90.22 529.7 91.01L527.95 89.49L527.27 90.27L529.02 91.8C528.33 92.57 527.6 93.31 526.84 94.01L525.29 92.26L524.51 92.95L526.06 94.71C525.28 95.39 524.46 96.02 523.62 96.62L522.3 94.66L521.44 95.24L522.76 97.21C521.9 97.78 521 98.31 520.08 98.8L519.01 96.65L518.08 97.11L519.15 99.26C518.22 99.71 517.27 100.12 516.29 100.49L515.5 98.19L514.52 98.53L515.31 100.83C514.33 101.16 513.33 101.44 512.31 101.67L511.82 99.26L510.8 99.47L511.29 101.89C510.31 102.08 509.31 102.23 508.3 102.32C507.78 102.42 507.81 103.8 508.35 103.95C523.85 102.53 536.29 90.53 538.39 75.24C538.39 75.05 536.97 74.95 536.76 75.18L536.77 75.17ZM477.99 80.63L477.65 79.65L475.2 80.49L475.54 81.47L477.99 80.63ZM479.53 84.14L479.07 83.21L476.75 84.36L477.21 85.29L479.53 84.14ZM474.38 77.46L476.92 76.95L476.71 75.93L474.17 76.44L474.38 77.46ZM481.52 87.42L480.94 86.56L478.79 88.01L479.37 88.87L481.52 87.42ZM484.83 46.38L484.05 47.07L485.77 49.01L486.55 48.32L484.83 46.38ZM483.92 90.41L483.23 89.63L481.29 91.35L481.98 92.13L483.92 90.41ZM505.96 103.35L505.04 103.13C504.69 103.05 504.45 102.98 504.35 102.91C504.18 102.82 504.1 102.68 504.1 102.49C504.1 102.29 504.19 102.13 504.36 102.01C504.53 101.9 504.76 101.84 505.05 101.84C505.31 101.84 505.53 101.88 505.7 101.97C505.96 102.1 506.1 102.33 506.12 102.64H507.17C507.15 102.08 506.94 101.66 506.55 101.37C506.16 101.08 505.68 100.93 505.12 100.93C504.45 100.93 503.95 101.08 503.6 101.39C503.26 101.7 503.08 102.09 503.08 102.56C503.08 103.07 503.26 103.45 503.61 103.69C503.82 103.83 504.2 103.97 504.76 104.09L505.33 104.21C505.66 104.28 505.9 104.36 506.06 104.45C506.21 104.54 506.29 104.68 506.29 104.85C506.29 105.15 506.13 105.35 505.82 105.46C505.66 105.52 505.44 105.55 505.18 105.55C504.74 105.55 504.43 105.44 504.25 105.23C504.15 105.11 504.08 104.93 504.05 104.69H503.01C503.01 105.23 503.21 105.66 503.6 105.97C503.99 106.28 504.54 106.44 505.22 106.44C505.9 106.44 506.42 106.28 506.78 105.97C507.15 105.65 507.33 105.26 507.33 104.78C507.33 104.3 507.17 103.96 506.86 103.71C506.66 103.55 506.36 103.42 505.96 103.33V103.35Z" fill="#D0D6EB"/>
<path d="M505.46 44.1L500.99 65.92L500.87 66.5L501.41 67.01C501.41 67.01 501.76 66.37 503.01 65.76C504.26 65.15 505.49 65.25 505.49 65.25L505.46 44.1V44.1ZM510.95 68.96C511.31 69.97 511.1 71.06 511.1 71.06L532.55 71.1L531.34 70.9L510.06 66.49L509.58 66.98C509.58 66.98 510.6 67.94 510.96 68.96H510.95ZM507.83 75.93C506.95 76.31 505.49 76.44 505.49 76.44L505.55 97.92L510.06 75.65L509.35 74.91C509.35 74.91 508.72 75.55 507.84 75.93H507.83ZM499.88 71.12L478.53 71.09C478.53 71.09 479.21 71.23 480.32 71.46C485.61 72.57 500.83 75.75 500.83 75.75L501.63 74.89C501.63 74.89 501.07 74.37 500.5 73.38C499.91 72.36 499.89 71.11 499.89 71.11L499.88 71.12ZM519.9 56.56L510 63.03L510.56 65.92L519.9 56.55V56.56ZM510.62 76.21L520.4 85.94L513.59 75.65L510.61 76.21H510.62ZM490.93 85.63L500.93 79.11L500.27 76.26L490.93 85.63V85.63ZM497.46 66.54L501 65.91L490.93 56.56L497.46 66.54Z" fill="white"/>
</g>
<defs>
<radialGradient id="paint0_radial_2_2" cx="0" cy="0" r="1" gradientUnits="userSpaceOnUse" gradientTransform="translate(-nan -nan) rotate(-nan) scale(-nan -nan)">
<stop stop-color="white"/>
<stop offset="1" stop-color="white" stop-opacity="0"/>
</radialGradient>
<clipPath id="clip0_2_2">
<rect width="682.91" height="184.7" fill="white"/>
</clipPath>
</defs>
</svg>
