<svg width="343" height="94" viewBox="0 0 343 94" fill="none" xmlns="http://www.w3.org/2000/svg">
<path d="M0.662994 63.6197H343" stroke="url(#paint0_radial_2_79)" stroke-width="3.21" stroke-miterlimit="10"/>
<path d="M0 38.776H1.4867C2.58665 43.6299 6.20294 48.358 11.5621 48.358C16.5345 48.358 20.4069 44.8636 20.4069 39.7478C20.4069 27.7087 1.29081 31.2685 1.29081 15.9867C1.29081 7.63839 7.23258 3.30309 15.1081 3.30309C17.755 3.30309 20.4019 3.88717 22.9886 4.27488L24.0232 12.5628H22.5365C21.8283 8.03113 18.8549 5.37758 14.209 5.37758C9.3019 5.37758 6.45909 8.93747 6.45909 13.6655C6.45909 25.7047 26.3487 22.4066 26.3487 37.2906C26.3487 45.7044 18.7947 50.4325 11.1753 50.4325C7.8152 50.4325 4.3295 49.6571 1.29584 48.2321L0 38.776Z" fill="#04315B"/>
<path d="M33.4457 31.5908C33.3151 32.1749 33.3151 33.1416 33.4457 35.347C33.8324 41.495 37.7701 46.5453 42.9384 46.5453C46.4894 46.5453 49.2669 44.6017 51.6577 42.21L52.5618 43.1163C49.5934 47.0639 45.9118 50.4325 40.618 50.4325C30.3517 50.4325 28.2824 40.4628 28.2824 36.3188C28.2824 23.6302 36.8058 19.8739 41.3262 19.8739C46.5547 19.8739 52.175 23.177 52.2403 30.0349C52.2403 30.4226 52.2403 30.8103 52.175 31.198L51.5924 31.5858H33.4457V31.5908ZM44.8772 29.5213C46.4894 29.5213 46.6853 28.6805 46.6853 27.905C46.6853 24.6019 44.6863 21.9484 41.07 21.9484C37.1323 21.9484 34.4201 24.8587 33.6466 29.5213H44.8822H44.8772Z" fill="#04315B"/>
<path d="M58.8852 31.5908C58.7547 32.1749 58.7547 33.1416 58.8852 35.347C59.272 41.495 63.2097 46.5453 68.378 46.5453C71.929 46.5453 74.7065 44.6017 77.0973 42.21L78.0014 43.1163C75.033 47.0639 71.3514 50.4325 66.0576 50.4325C55.7913 50.4325 53.722 40.4628 53.722 36.3188C53.722 23.6302 62.2454 19.8739 66.7657 19.8739C71.9943 19.8739 77.6146 23.177 77.6799 30.0349C77.6799 30.4226 77.6799 30.8103 77.6146 31.198L77.032 31.5858H58.8852V31.5908ZM70.3167 29.5213C71.929 29.5213 72.1249 28.6805 72.1249 27.905C72.1249 24.6019 70.1259 21.9484 66.5096 21.9484C62.5718 21.9484 59.8596 24.8587 59.0861 29.5213H70.3218H70.3167Z" fill="#04315B"/>
<path d="M102.341 41.495C102.341 45.7649 104.666 46.933 106.409 46.933C108.152 46.933 109.443 46.3489 110.93 45.0549L111.899 46.0267C109.639 48.358 106.796 50.4275 103.31 50.4275C99.1767 50.4275 97.1777 48.2271 97.1777 44.4054V24.3401H92.9185V23.3029C96.2737 20.7148 98.2777 19.4862 101.573 14.2395H102.346V20.8407H111.969V24.3351H102.346V41.49L102.341 41.495Z" fill="#04315B"/>
<path d="M115.962 9.58197C115.962 5.37255 114.993 5.24667 112.542 4.53167V3.49442C115.124 2.65355 117.836 1.49042 119.192 0.709962C119.905 0.322252 120.417 0 120.613 0C121 0 121.131 0.38771 121.131 0.906335V25.5687C121.713 25.0501 125.847 19.8739 131.075 19.8739C136.696 19.8739 139.729 24.0179 139.729 29.6472V45.6339C139.729 47.7689 141.151 47.7689 142.959 47.7689H144.119V49.4506C141.859 49.4506 139.599 49.3197 137.143 49.3197C134.817 49.3197 132.492 49.3852 130.171 49.4506V47.7689H131.332C134.365 47.7689 134.561 47.0589 134.561 40.7146V33.3984C134.561 28.6704 134.109 23.751 128.233 23.751C125.199 23.751 122.612 26.0168 121.131 27.3763V45.6289C121.131 47.7638 122.552 47.7638 124.36 47.7638H125.52V49.4456C123.26 49.4456 121 49.3147 118.675 49.3147C116.349 49.3147 114.024 49.3801 111.703 49.4456V47.7638H112.863C114.672 47.7638 115.962 47.7638 115.962 45.6289V9.58197V9.58197Z" fill="#04315B"/>
<path d="M149.991 31.5908C149.86 32.1749 149.86 33.1416 149.991 35.347C150.377 41.495 154.315 46.5453 159.483 46.5453C163.034 46.5453 165.812 44.6017 168.203 42.21L169.107 43.1163C166.138 47.0639 162.457 50.4325 157.163 50.4325C146.897 50.4325 144.827 40.4628 144.827 36.3188C144.827 23.6302 153.351 19.8739 157.871 19.8739C163.1 19.8739 168.72 23.177 168.785 30.0349C168.785 30.4226 168.785 30.8103 168.72 31.198L168.137 31.5858H149.991V31.5908ZM161.422 29.5213C163.034 29.5213 163.23 28.6805 163.23 27.905C163.23 24.6019 161.226 21.9484 157.615 21.9484C153.677 21.9484 150.965 24.8587 150.192 29.5213H161.427H161.422Z" fill="#04315B"/>
<path d="M212.879 27.8345L205.194 9.96968C203.708 6.54072 203.13 5.95663 199.062 5.95663V4.27488C202.095 4.34034 205.069 4.40579 208.037 4.40579C210.232 4.40579 212.623 4.27488 214.752 4.27488V5.95663C213.592 5.95663 211.201 6.02209 211.201 7.57797C211.201 8.09659 211.653 9.39064 211.915 10.0402L216.113 20.8507L220.182 11.9838C220.955 10.302 221.342 9.06838 221.342 8.03617C221.342 5.9667 219.795 5.9667 217.018 5.9667V4.28495C219.408 4.35041 222.055 4.41587 224.441 4.41587C226.184 4.41587 228.248 4.28495 230.061 4.28495V5.9667C226.701 5.9667 225.41 7.58804 224.185 10.1107L217.6 23.9625L225.35 41.8928L236.134 12.311C237.234 9.39567 237.294 8.55479 237.294 8.10163C237.294 6.9385 236.646 6.03216 232.452 5.9667V4.28495C234.843 4.35041 237.294 4.41587 239.685 4.41587C241.297 4.41587 243.17 4.28495 244.848 4.28495V5.9667C241.814 5.9667 241.101 7.77937 240.071 10.4329L224.637 50.4375H222.959L214.24 30.8859L205.134 50.4375H203.326L187.314 11.0774C185.827 7.51754 185.054 5.96167 180.533 5.96167V4.27991C183.376 4.34537 186.54 4.41083 189.378 4.41083C191.834 4.41083 194.546 4.27991 196.997 4.27991V5.96167C194.029 5.96167 192.994 6.54575 192.994 7.45209C192.994 8.10163 192.994 8.61521 193.708 10.4279L206.365 41.8878L212.884 27.8396L212.879 27.8345Z" fill="#04315B"/>
<path d="M272.734 47.7739H274.476C276.285 47.7739 277.575 47.7739 277.575 45.639V27.4468C277.575 25.4378 275.185 25.0501 274.215 24.5315V23.5597C278.931 21.5506 281.513 19.8689 282.091 19.8689C282.477 19.8689 282.673 20.0652 282.673 20.7097V26.5355H282.804C284.416 24.0128 287.128 19.8689 291.071 19.8689C292.683 19.8689 294.753 20.9716 294.753 23.2978C294.753 25.045 293.527 26.6009 291.719 26.6009C289.72 26.6009 289.72 25.045 287.46 25.045C286.36 25.045 282.744 26.5355 282.744 30.4176V45.6289C282.744 47.7638 284.034 47.7638 285.843 47.7638H289.459V49.4456C285.908 49.3801 283.196 49.3147 280.418 49.3147C277.641 49.3147 275.059 49.3801 272.734 49.4456V47.7638V47.7739Z" fill="#04315B"/>
<path d="M295.139 47.7739H296.365C298.173 47.7739 299.464 47.7739 299.464 45.639V9.58197C299.464 5.37255 298.495 5.24667 296.043 4.53167V3.49442C298.625 2.65355 301.337 1.49042 302.693 0.709962C303.402 0.322252 303.919 0 304.115 0C304.502 0 304.632 0.38771 304.632 0.906335V45.639C304.632 47.7739 306.054 47.7739 307.862 47.7739H308.962V49.4557C306.767 49.4557 304.507 49.3247 302.181 49.3247C299.856 49.3247 297.53 49.3902 295.144 49.4557V47.7739H295.139Z" fill="#04315B"/>
<path d="M337.691 43.8918C337.691 46.5453 338.339 46.5453 340.855 46.5453H341.955V47.8394H341.89C340.921 48.0357 339.178 48.5493 337.304 49.1334C335.3 49.7829 333.623 50.4275 333.236 50.4275C332.588 50.4275 332.523 49.4557 332.523 48.6802V45.7044H332.392C330.067 48.1012 326.45 50.4275 322.513 50.4275C314.763 50.4275 310.504 43.6299 310.504 36.3793C310.504 27.6382 317.54 19.8739 326.45 19.8739C328.515 19.8739 330.649 20.2616 332.518 21.037V9.58197C332.518 5.37255 331.548 5.24667 329.097 4.53167V3.49442C331.679 2.65355 334.391 1.49042 335.747 0.709962C336.456 0.322252 336.973 0 337.169 0C337.555 0 337.686 0.38771 337.686 0.906335V43.8918H337.691ZM332.528 27.905C332.528 23.1166 328.525 21.9484 325.682 21.9484C321.096 21.9484 316.059 25.3774 316.059 34.1185C316.059 41.2382 320.383 46.5453 326.26 46.5453C328.198 46.5453 332.523 45.1204 332.523 42.7236V27.9L332.528 27.905Z" fill="#04315B"/>
<path d="M24.0232 74.5359C26.0122 74.5359 28.0011 74.5863 30.0152 74.5863C32.2101 74.5863 34.4301 74.5863 36.6551 74.5359L36.8108 78.1865L36.2182 78.2922C35.9871 76.117 34.847 75.3668 32.1649 75.3668H29.0157V82.7232H32.1398C34.1036 82.7232 34.3849 82.4362 34.6963 80.5731H35.289C35.2136 81.555 35.1835 82.5419 35.1835 83.3677C35.1835 84.5308 35.2588 85.9306 35.289 86.137H34.7716C34.4853 84.274 34.3045 83.7806 32.2151 83.7806H29.0107V90.0746C29.0107 92.0937 30.3015 91.862 31.3613 91.9376V92.6123C30.0453 92.5871 28.7545 92.5619 27.4587 92.5619C26.3236 92.5619 25.1583 92.5871 24.0232 92.6123V91.9376C26.0624 91.9376 26.4793 91.6506 26.4793 89.2941V77.4362C26.4793 75.4675 26.0925 75.261 24.0232 75.2107V74.5359Z" fill="#04315B"/>
<path d="M37.8656 74.536C39.1061 74.5611 40.3718 74.5863 41.6878 74.5863C43.0841 74.5863 43.2147 74.536 45.3292 74.536C49.2318 74.536 51.2157 76.4795 51.2157 79.118C51.2157 81.0616 49.8747 82.8491 47.5492 83.5439L50.6481 88.1813C51.1655 88.9316 51.6828 89.6818 52.2504 90.3062C53.2599 91.4441 54.0585 91.9628 55.1685 91.9376V92.6123C54.4955 92.6123 53.8275 92.5619 53.1544 92.5619C52.4312 92.5619 51.733 92.5871 51.0349 92.6123C49.8194 91.2931 48.84 89.8933 47.9861 88.6244C46.9766 87.1239 46.0474 85.5681 45.0931 84.0676H42.7425V90.0997C42.7425 91.6808 43.4909 91.9628 45.0931 91.9376V92.6123C43.9028 92.6123 42.7174 92.5619 41.5019 92.5619C40.2865 92.5619 39.076 92.5871 37.8605 92.6123V91.9376C39.7189 92.0433 40.2111 91.2629 40.2111 90.0997V77.124C40.2111 75.5933 39.6687 75.1805 37.8605 75.2056V74.5309L37.8656 74.536ZM42.7475 83.1059C43.1343 83.1814 43.5461 83.2368 44.1941 83.2368C46.9063 83.2368 48.5336 81.4996 48.5336 79.2741C48.5336 76.7112 47.0369 75.3617 44.2694 75.3617C43.7521 75.3617 43.4708 75.4121 42.7475 75.5178V83.1059V83.1059Z" fill="#04315B"/>
<path d="M74.9576 83.4684C74.9576 88.3374 71.1857 93 65.6557 93C60.1258 93 56.4342 88.4431 56.4342 83.6748C56.4342 78.9065 60.2313 74.1432 65.7361 74.1432C70.9044 74.1432 74.9576 78.5691 74.9576 83.4633V83.4684ZM65.9671 92.1692C69.6588 92.1692 72.1148 88.9819 72.1148 84.2186C72.1148 80.0998 69.7391 74.974 65.3996 74.974C61.8084 74.974 59.277 78.0555 59.277 82.8994C59.277 87.1995 61.7582 92.1692 65.9671 92.1692V92.1692Z" fill="#04315B"/>
<path d="M77.484 74.536C78.3881 74.5611 79.2671 74.5863 80.146 74.5863C80.7387 74.5863 81.3062 74.536 81.8788 74.536L88.8251 89.0625L92.7026 81.1623C93.6318 79.2741 94.792 76.837 95.8015 74.5309C96.4746 74.5561 97.1175 74.5813 97.7905 74.5813C98.5891 74.5813 99.3927 74.5309 100.191 74.5309V75.2056C98.358 75.2056 97.8909 75.4373 97.8909 77.1744C97.8909 81.0314 98.2023 87.9447 98.2526 89.9134C98.3028 91.57 98.8703 91.9325 101.04 91.9325V92.6073C99.6438 92.6073 98.2526 92.5569 96.8563 92.5569C95.5655 92.5569 94.2998 92.5821 93.0089 92.6073V91.9325C93.9381 91.9577 94.5861 91.9074 94.9979 91.7009C95.5404 91.4139 95.6709 90.7442 95.6709 89.8883L95.4901 77.5873H95.4399L89.5484 89.8379C89.3675 90.2004 88.8753 91.2377 88.3329 92.8439H87.8156C87.1676 91.3938 86.575 90.0997 85.9823 88.856C84.2244 85.1552 82.4413 81.6809 80.6884 78.1613H80.6382C80.5629 81.8118 80.4072 87.9245 80.4072 89.1682C80.4072 90.4119 80.5378 91.1118 80.9496 91.4995C81.3113 91.8369 81.929 91.9376 83.0441 91.9376V92.6123C82.0094 92.6123 80.9798 92.5619 79.9451 92.5619C78.7547 92.5619 77.5945 92.5871 76.4092 92.6123V91.9376C78.4233 91.9376 79.3775 91.288 79.483 88.0554C79.5584 85.3364 79.7693 80.8551 79.7693 77.5671C79.7693 75.5984 79.3323 75.2358 77.4941 75.2107V74.536H77.484Z" fill="#04315B"/>
<path d="M108.142 74.5359C109.383 74.5611 110.543 74.5863 111.578 74.5863C112.974 74.5863 114.159 74.5359 114.882 74.5359V75.2107C113.953 75.2107 113.436 75.3668 113.436 75.7545C113.411 76.0666 113.903 76.7917 114.29 77.3607L117.906 82.4613L121.834 77.0737C122.065 76.7363 122.301 76.2731 122.301 75.9609C122.301 75.2107 121.733 75.2107 120.468 75.2107V74.5359C121.347 74.5611 122.251 74.5863 123.155 74.5863C123.958 74.5863 124.807 74.5359 125.556 74.5359V75.2107C124.496 75.261 124.109 75.7796 123.411 76.7112L118.479 83.3929V89.9436C118.479 91.6254 119.071 91.9376 120.829 91.9376V92.6123C119.564 92.5871 118.298 92.5619 117.032 92.5619C115.872 92.5619 114.732 92.5871 113.597 92.6123V91.9376C115.018 91.9376 115.947 91.8067 115.947 90.1249V83.8057L110.548 76.3486C109.93 75.4675 109.8 75.2862 108.147 75.2107V74.5359H108.142Z" fill="#04315B"/>
<path d="M145.541 83.4684C145.541 88.3374 141.769 93 136.239 93C130.709 93 127.017 88.4431 127.017 83.6748C127.017 78.9065 130.814 74.1432 136.319 74.1432C141.487 74.1432 145.541 78.5691 145.541 83.4633V83.4684ZM136.55 92.1692C140.242 92.1692 142.698 88.9819 142.698 84.2186C142.698 80.0998 140.322 74.974 135.983 74.974C132.391 74.974 129.86 78.0555 129.86 82.8994C129.86 87.1995 132.341 92.1692 136.55 92.1692V92.1692Z" fill="#04315B"/>
<path d="M146.701 74.5359C147.861 74.5611 149.026 74.5863 150.187 74.5863C151.427 74.5863 152.693 74.5611 153.933 74.5359V75.2107C152.1 75.1855 151.583 75.6235 151.583 77.1291V85.9608C151.583 89.8429 153.26 91.9426 156.62 91.9426C159.719 91.9426 161.322 90.1803 161.322 86.9175V79.2791C161.322 75.2912 161.141 75.2661 158.866 75.2107V74.5359C159.875 74.5611 160.88 74.5863 161.889 74.5863C162.844 74.5863 163.773 74.5359 164.732 74.5359V75.2107C162.899 75.2107 162.693 75.9861 162.693 78.5792V86.8671C162.693 90.4421 160.392 93.005 155.952 93.005C151.512 93.005 149.056 90.6737 149.056 86.4291V77.1039C149.056 75.6538 148.539 75.1855 146.706 75.2157V74.541L146.701 74.5359Z" fill="#04315B"/>
<path d="M165.325 74.536C166.565 74.5611 167.831 74.5863 169.147 74.5863C170.543 74.5863 170.674 74.536 172.788 74.536C176.691 74.536 178.675 76.4795 178.675 79.118C178.675 81.0616 177.334 82.8491 175.008 83.5439L178.107 88.1813C178.625 88.9316 179.142 89.6818 179.709 90.3062C180.719 91.4441 181.518 91.9628 182.628 91.9376V92.6123C181.955 92.6123 181.287 92.5619 180.614 92.5619C179.89 92.5619 179.192 92.5871 178.494 92.6123C177.279 91.2931 176.299 89.8933 175.445 88.6244C174.436 87.1239 173.507 85.5681 172.552 84.0676H170.202V90.0997C170.202 91.6808 170.95 91.9628 172.552 91.9376V92.6123C171.362 92.6123 170.177 92.5619 168.961 92.5619C167.746 92.5619 166.535 92.5871 165.32 92.6123V91.9376C167.178 92.0433 167.67 91.2629 167.67 90.0997V77.124C167.67 75.5933 167.128 75.1805 165.32 75.2056V74.5309L165.325 74.536ZM170.207 83.1059C170.593 83.1814 171.005 83.2368 171.653 83.2368C174.365 83.2368 175.993 81.4996 175.993 79.2741C175.993 76.7112 174.496 75.3617 171.729 75.3617C171.211 75.3617 170.93 75.4121 170.207 75.5178V83.1059V83.1059Z" fill="#04315B"/>
<path d="M189.679 74.536C190.714 74.5863 191.774 74.5863 192.859 74.5863C193.788 74.5863 195.676 74.536 197.123 74.536C204.044 74.536 207.535 79.1432 207.535 83.5993C207.535 86.706 205.571 92.6123 196.942 92.6123C195.651 92.6123 194.23 92.5619 192.989 92.5619C191.879 92.5619 190.769 92.5871 189.684 92.6123V91.9376C191.236 91.7815 192.06 91.7311 192.06 89.9688V77.4866C192.06 75.8804 191.623 75.2056 190.121 75.2056H189.684V74.5309L189.679 74.536ZM194.586 89.5559C194.586 91.5499 196.008 91.7815 197.299 91.7815C202.437 91.7815 204.687 88.0806 204.687 83.7C204.687 78.831 201.563 75.3617 196.601 75.3617C195.591 75.3617 195.104 75.4373 194.586 75.4675V89.5559V89.5559Z" fill="#04315B"/>
<path d="M228.394 83.4684C228.394 88.3374 224.622 93 219.092 93C213.562 93 209.87 88.4431 209.87 83.6748C209.87 78.9065 213.667 74.1432 219.172 74.1432C224.341 74.1432 228.394 78.5691 228.394 83.4633V83.4684ZM219.403 92.1692C223.095 92.1692 225.551 88.9819 225.551 84.2186C225.551 80.0998 223.175 74.974 218.836 74.974C215.245 74.974 212.713 78.0555 212.713 82.8994C212.713 87.1995 215.194 92.1692 219.403 92.1692V92.1692Z" fill="#04315B"/>
<path d="M249.263 83.4684C249.263 88.3374 245.491 93 239.961 93C234.431 93 230.739 88.4431 230.739 83.6748C230.739 78.9065 234.536 74.1432 240.041 74.1432C245.21 74.1432 249.263 78.5691 249.263 83.4633V83.4684ZM240.272 92.1692C243.964 92.1692 246.42 88.9819 246.42 84.2186C246.42 80.0998 244.044 74.974 239.705 74.974C236.114 74.974 233.582 78.0555 233.582 82.8994C233.582 87.1995 236.063 92.1692 240.272 92.1692V92.1692Z" fill="#04315B"/>
<path d="M251.041 74.536C252.281 74.5611 253.547 74.5863 254.863 74.5863C256.259 74.5863 256.39 74.536 258.504 74.536C262.407 74.536 264.391 76.4795 264.391 79.118C264.391 81.0616 263.05 82.8491 260.724 83.5439L263.823 88.1813C264.341 88.9316 264.858 89.6818 265.426 90.3062C266.435 91.4441 267.234 91.9628 268.344 91.9376V92.6123C267.671 92.6123 267.003 92.5619 266.33 92.5619C265.606 92.5619 264.908 92.5871 264.21 92.6123C262.995 91.2931 262.015 89.8933 261.161 88.6244C260.152 87.1239 259.223 85.5681 258.268 84.0676H255.918V90.0997C255.918 91.6808 256.666 91.9628 258.268 91.9376V92.6123C257.078 92.6123 255.893 92.5619 254.677 92.5619C253.462 92.5619 252.251 92.5871 251.036 92.6123V91.9376C252.894 92.0433 253.386 91.2629 253.386 90.0997V77.124C253.386 75.5933 252.844 75.1805 251.036 75.2056V74.5309L251.041 74.536ZM255.923 83.1059C256.31 83.1814 256.721 83.2368 257.369 83.2368C260.082 83.2368 261.709 81.4996 261.709 79.2741C261.709 76.7112 260.212 75.3617 257.445 75.3617C256.927 75.3617 256.646 75.4121 255.923 75.5178V83.1059V83.1059Z" fill="#04315B"/>
<path d="M278.499 74.536L278.911 77.8491H278.319C278.032 76.0113 276.822 74.974 274.989 74.974C273.025 74.974 271.89 76.399 271.89 78.2872C271.89 83.131 279.846 81.7564 279.846 87.7382C279.846 91.0816 276.872 92.995 273.773 92.995C272.482 92.995 271.086 92.708 269.82 92.1138L269.303 88.3324H269.896C270.413 90.5328 271.96 92.1642 273.924 92.1642C275.888 92.1642 277.465 90.7392 277.465 88.7201C277.465 83.9014 269.82 85.3264 269.82 79.2137C269.82 76.0264 272.015 74.1382 275.35 74.1382C276.36 74.1382 277.495 74.3698 278.499 74.5259V74.536Z" fill="#04315B"/>
<path d="M281.081 73.8109H281.598C281.855 74.5108 282.658 74.536 283.15 74.536H295.034C295.782 74.536 296.531 74.3295 296.636 73.8109H297.179L296.948 77.9297H296.249C296.144 76.7112 296.405 75.5984 294.155 75.5984H290.252V90.1249C290.252 91.8872 291.287 91.9124 292.603 91.9376V92.6123C291.362 92.6123 290.097 92.5619 288.831 92.5619C287.671 92.5619 286.531 92.5871 285.37 92.6123V91.9376C286.455 91.8872 287.721 92.0433 287.721 90.1501V75.5984H284.361C282.191 75.5984 281.905 76.0667 281.468 77.9297H280.795L281.081 73.8109V73.8109Z" fill="#04315B"/>
<path d="M297.761 74.5359C299.389 74.5863 302.387 74.5863 304.713 74.5863C306.596 74.5863 309.127 74.5611 310.423 74.5359V78.3929L309.906 78.5238C309.544 76.1422 308.354 75.3668 305.878 75.3668H302.754V82.7232H306.214C307.505 82.7232 308.254 82.0485 308.334 80.4976H308.851C308.801 81.0918 308.746 82.1542 308.746 83.4231C308.746 84.123 308.876 85.4925 308.851 86.273H308.334C308.309 84.123 307.766 83.7856 306.008 83.7856H302.754V88.423C302.754 91.1924 302.96 91.7916 305.516 91.7916H306.988C307.967 91.7916 308.485 91.716 308.871 91.6355C310.032 91.3485 310.91 90.7291 311.684 88.5539L312.302 88.6597C311.89 89.9789 311.528 91.147 311.242 92.6224C308.786 92.6224 306.31 92.572 303.854 92.572C301.814 92.572 299.8 92.572 297.756 92.6224V91.9476C299.876 91.9225 300.212 91.6606 300.212 89.2035V77.4463C300.212 75.5279 299.876 75.2711 297.756 75.2207V74.546L297.761 74.5359Z" fill="#04315B"/>
<path d="M312.819 74.5359C313.567 74.5611 314.602 74.5863 315.506 74.5863C317.339 74.5863 317.907 74.5359 319.097 74.5359C322.016 74.5359 325.657 75.7293 325.657 79.6869C325.657 82.5872 322.995 84.8682 320.077 84.8682C319.665 84.8682 319.198 84.843 318.786 84.843V83.987C319.072 84.0374 319.509 84.0374 319.59 84.0374C320.443 84.0374 320.75 83.9064 321.192 83.6748C322.046 83.2368 322.975 81.8873 322.975 79.9488C322.975 76.7615 320.936 75.3668 318.686 75.3668C318.429 75.3668 317.857 75.3919 317.626 75.4423V90.0997C317.626 91.6808 318.349 91.9376 320.001 91.9376V92.6123C318.736 92.6123 317.47 92.5619 316.204 92.5619C315.044 92.5619 313.904 92.5871 312.744 92.6123V91.9376C314.371 91.9376 315.094 91.706 315.094 90.0192V77.6175C315.094 75.5984 314.602 75.2358 312.819 75.2107V74.5359Z" fill="#04315B"/>
<path d="M253.884 34.3904C253.175 34.3904 252.603 34.9644 252.603 35.6693C252.603 36.3742 253.175 36.9533 253.884 36.9533C254.592 36.9533 255.164 36.3793 255.164 35.6693C255.164 34.9593 254.592 34.3904 253.884 34.3904ZM253.884 36.6965C253.316 36.6965 252.859 36.2383 252.859 35.6693C252.859 35.1003 253.316 34.6421 253.884 34.6421C254.451 34.6421 254.908 35.1003 254.908 35.6693C254.908 36.2383 254.451 36.6965 253.884 36.6965ZM268.73 35.8103C265.21 35.0651 261.694 34.3249 258.173 33.5797V33.5545C259.464 31.5707 260.755 29.5918 262.04 27.608C260.051 28.907 258.062 30.2061 256.068 31.5052C254.838 25.614 253.874 20.9665 253.838 20.9212C253.11 24.4308 252.387 27.9453 251.659 31.4548C251.643 31.4649 251.623 31.47 251.608 31.48C249.634 30.191 247.661 28.902 245.692 27.608C246.962 29.5717 248.238 31.5404 249.509 33.5042C249.524 33.5193 249.544 33.5394 249.559 33.5545C246.048 34.2997 242.537 35.0399 239.027 35.7851C242.517 36.5303 246.013 37.2705 249.504 38.0157H249.554C248.283 39.9694 247.008 41.9281 245.737 43.8867C245.722 43.9119 245.702 43.9371 245.687 43.9623C247.666 42.6733 249.65 41.3843 251.628 40.0902C252.362 43.6199 253.095 47.1495 253.833 50.6742C254.577 47.1445 255.32 43.6148 256.063 40.0902H256.089C258.067 41.3893 260.051 42.6884 262.03 43.9874C260.739 42.0036 259.449 40.0247 258.163 38.0409C261.684 37.2957 265.2 36.5555 268.72 35.8103H268.73ZM257.455 30.9161C258.675 30.1054 259.896 29.2948 261.116 28.4791C259.554 30.05 257.992 31.621 256.425 33.197C256.33 32.7439 256.239 32.2907 256.144 31.8375C256.224 31.5606 257.178 31.0923 257.45 30.9161H257.455ZM246.541 28.4791H246.566C248.138 30.0601 249.71 31.6412 251.282 33.2222C250.805 33.3179 250.328 33.4085 249.845 33.5042C248.745 31.8275 247.64 30.1558 246.541 28.4791ZM246.566 43.1164C248.128 41.5454 249.69 39.9744 251.257 38.3984C251.367 38.8767 251.478 39.3551 251.588 39.8334C249.916 40.926 248.238 42.0187 246.566 43.1164V43.1164ZM253.894 49.1133C253.889 45.5735 253.879 42.0288 253.874 38.489C253.125 38.489 252.442 38.1919 251.94 37.7086L251.563 38.0912C247.917 37.3309 244.27 36.5706 240.624 35.8103H251.071C251.071 35.765 251.066 35.7146 251.066 35.6693C251.066 34.9241 251.357 34.2443 251.829 33.7408L251.563 33.479C252.322 29.7983 253.085 26.1125 253.843 22.4318C253.848 25.9061 253.858 29.3803 253.864 32.8496C253.869 32.8496 253.874 32.8496 253.884 32.8496C254.687 32.8496 255.415 33.187 255.928 33.7308L256.179 33.479C259.84 34.2393 263.507 34.9996 267.168 35.7599C263.678 35.765 260.187 35.775 256.696 35.7801C256.666 36.5454 256.33 37.2353 255.807 37.7287C255.933 37.8495 256.053 37.9704 256.179 38.0963C255.421 41.772 254.657 45.4426 253.899 49.1183L253.894 49.1133ZM261.197 43.1164C259.614 41.5353 258.037 39.9543 256.455 38.3732C256.917 38.2725 257.671 38.1466 257.952 38.0912C258.083 38.2221 260.403 41.9079 261.197 43.1164ZM253.884 33.1064C252.467 33.1064 251.322 34.2544 251.322 35.6693C251.322 37.0842 252.467 38.2322 253.884 38.2322C255.3 38.2322 256.445 37.0842 256.445 35.6693C256.445 34.2544 255.3 33.1064 253.884 33.1064ZM253.884 37.7186C252.754 37.7186 251.834 36.8022 251.834 35.6693C251.834 34.5364 252.754 33.62 253.884 33.62C255.014 33.62 255.933 34.5364 255.933 35.6693C255.933 36.8022 255.014 37.7186 253.884 37.7186ZM253.884 34.8989C253.457 34.8989 253.115 35.2413 253.115 35.6693C253.115 36.0973 253.462 36.4397 253.884 36.4397C254.306 36.4397 254.652 36.0973 254.652 35.6693C254.652 35.2413 254.306 34.8989 253.884 34.8989Z" stroke="#04315B" stroke-width="0.2"/>
<path d="M240.423 26.9081L241.508 27.6281L241.794 27.1951L240.709 26.475L240.423 26.9081ZM242.99 25.6795L242.01 24.8235L241.669 25.2162L242.648 26.0722L242.99 25.6795ZM238.143 32.7388L239.418 32.9906L239.519 32.477L238.243 32.2252L238.143 32.7388ZM239.408 28.7459L240.579 29.3199L240.81 28.8517L239.639 28.2776L239.408 28.7459ZM238.645 30.6996L239.881 31.1175L240.046 30.624L238.811 30.2061L238.645 30.6996ZM261.202 35.6945C261.202 31.5153 257.821 28.1216 253.648 28.1216C249.474 28.1216 246.094 31.5102 246.094 35.6945C246.094 39.8787 249.474 43.2674 253.648 43.2674C257.821 43.2674 261.202 39.8787 261.202 35.6945V35.6945ZM246.877 35.6945C246.877 31.9433 249.911 28.902 253.653 28.902C257.394 28.902 260.428 31.9433 260.428 35.6945C260.428 39.4457 257.394 42.487 253.653 42.487C249.911 42.487 246.877 39.4457 246.877 35.6945ZM243.19 47.502L243.582 47.8444L244.436 46.8625L244.044 46.5201L243.19 47.502ZM263.286 35.6945C263.286 30.3572 258.972 26.037 253.653 26.037C248.334 26.037 244.019 30.3622 244.019 35.6945C244.019 41.0267 248.334 45.352 253.653 45.352C258.972 45.352 263.286 41.0267 263.286 35.6945V35.6945ZM244.27 35.6945C244.27 30.5032 248.469 26.2938 253.648 26.2938C258.826 26.2938 263.025 30.5032 263.025 35.6945C263.025 40.8858 258.826 45.0952 253.648 45.0952C248.469 45.0952 244.27 40.8858 244.27 35.6945ZM266.932 35.6945C266.932 28.3431 260.986 22.3814 253.653 22.3814C246.32 22.3814 240.373 28.3431 240.373 35.6945C240.373 43.0459 246.32 49.0075 253.653 49.0075C260.986 49.0075 266.932 43.0459 266.932 35.6945ZM240.629 35.6945C240.629 28.4841 246.46 22.6433 253.648 22.6433C260.835 22.6433 266.666 28.4891 266.666 35.6945C266.666 42.8998 260.835 48.7457 253.648 48.7457C246.46 48.7457 240.629 42.8998 240.629 35.6945ZM237.877 33.9422C238.359 29.1387 240.98 24.9846 244.752 22.3965L245.476 23.4791L245.908 23.1871L245.184 22.1045C245.626 21.8225 246.078 21.5557 246.551 21.314L247.128 22.4771L247.595 22.2455L247.018 21.0824C247.49 20.8608 247.972 20.6544 248.469 20.4781L248.891 21.7067L249.383 21.5355L248.961 20.3019C249.459 20.1458 249.966 20.0099 250.483 19.9041L250.739 21.168L251.252 21.0622L250.996 19.8034C251.156 19.7732 251.317 19.748 251.478 19.7229C252.231 19.6121 252.186 18.7964 251.412 18.9071C243.803 19.9796 237.831 26.1679 237.063 33.8868C237.093 34.0027 237.866 33.9825 237.877 33.9473V33.9422ZM253.196 18.5547L254.265 20.4227H254.813V17.7944H254.3V19.6272L253.261 17.7944H252.688V20.4227H253.201V18.5547H253.196ZM255.697 19.6675C256.043 19.7077 256.38 19.7732 256.716 19.8336L256.48 21.0421L256.993 21.1428L257.229 19.9343C257.741 20.0451 258.243 20.1911 258.735 20.3522L258.349 21.5053L258.841 21.6715L259.228 20.5234C259.72 20.7047 260.202 20.9011 260.669 21.1226L260.142 22.2052L260.609 22.4368L261.131 21.3643C261.593 21.606 262.045 21.8729 262.477 22.1548L261.824 23.1367L262.256 23.4237L262.909 22.4368C263.336 22.7339 263.748 23.0561 264.14 23.3935L263.371 24.2797L263.763 24.6221L264.527 23.746C264.908 24.0984 265.28 24.466 265.626 24.8487L264.763 25.614L265.109 26.0068L265.978 25.2364C266.315 25.6342 266.621 26.0471 266.917 26.4801L265.968 27.1195L266.259 27.5526L267.209 26.9131C267.49 27.3512 267.756 27.7943 267.992 28.2625L266.968 28.7761L267.199 29.2444L268.218 28.7358C268.439 29.2041 268.635 29.6825 268.811 30.1759L267.741 30.5435L267.912 31.0369L268.987 30.6643C269.142 31.1578 269.283 31.6563 269.393 32.1698L268.278 32.3964L268.384 32.91L269.489 32.6885C269.534 32.9453 269.589 33.2021 269.625 33.4589C269.715 34.1537 270.529 34.0883 270.433 33.3682C269.439 25.7903 263.417 19.7984 255.832 18.8719C255.159 18.7913 255.064 19.602 255.692 19.6775L255.697 19.6675ZM251.091 51.359L251.337 50.0951L250.825 49.9944L250.579 51.2633C250.061 51.1576 249.554 51.0166 249.057 50.8655L249.469 49.6369L248.977 49.4708L248.565 50.7044C248.067 50.5332 247.585 50.3267 247.108 50.1052L247.681 48.937L247.214 48.7054L246.646 49.8736C246.174 49.6369 245.722 49.3701 245.275 49.0931L245.993 48.0055L245.561 47.7185L244.843 48.8061C241.136 46.2936 238.529 42.2906 237.937 37.633C237.871 37.5474 237.118 37.6079 237.113 37.633C238.057 45.4023 244.28 51.5352 252.075 52.3257C252.08 52.361 252.176 51.5654 252.075 51.505C251.749 51.4697 251.423 51.4194 251.101 51.369L251.091 51.359ZM237.445 37.1194H237.972L238.71 34.4911H238.153L237.801 36.0117L237.721 36.4145L237.64 35.9966L237.329 34.4911H236.751L236.455 36.0067L236.38 36.4195L236.304 36.0016L235.958 34.4961H235.375L236.119 37.1245H236.626L236.942 35.5837L237.033 35.0752L237.123 35.5837L237.44 37.1245L237.445 37.1194ZM269.926 36.6058V35.9311H271.202V35.4729H269.926V34.914H271.312V34.4458H269.388V37.0741H271.377V36.6008H269.926V36.6058ZM269.599 37.8495C269.474 38.7206 269.283 39.5665 269.022 40.3822L267.937 40.0147L267.771 40.5081L268.856 40.8757C268.685 41.3691 268.489 41.8525 268.273 42.3208L267.239 41.8122L267.008 42.2805L268.042 42.7891C267.806 43.2523 267.55 43.7105 267.274 44.1486L266.31 43.5091L266.023 43.9421L266.988 44.5816C266.696 45.0096 266.38 45.4275 266.048 45.8253L265.169 45.0599L264.828 45.4527L265.707 46.2231C265.36 46.6108 264.994 46.9834 264.612 47.3358L263.833 46.4547L263.442 46.8021L264.22 47.6883C263.828 48.0307 263.417 48.3479 262.995 48.65L262.332 47.6631L261.9 47.9552L262.563 48.9471C262.131 49.2341 261.679 49.501 261.217 49.7477L260.679 48.6651L260.212 48.8968L260.75 49.9793C260.282 50.2059 259.805 50.4123 259.313 50.5986L258.916 49.4406L258.424 49.6118L258.821 50.7699C258.329 50.936 257.826 51.077 257.314 51.1928L257.068 49.9793L256.556 50.0851L256.802 51.3036C256.31 51.3992 255.807 51.4748 255.3 51.5201C255.039 51.5704 255.054 52.2653 255.325 52.3408C263.11 51.6258 269.358 45.5836 270.413 37.8848C270.413 37.7891 269.7 37.7388 269.594 37.8546L269.599 37.8495ZM240.076 40.5988L239.906 40.1053L238.675 40.5283L238.846 41.0217L240.076 40.5988ZM240.85 42.3661L240.619 41.8978L239.454 42.4769L239.685 42.9452L240.85 42.3661ZM238.263 39.0026L239.539 38.7458L239.434 38.2322L238.158 38.489L238.263 39.0026ZM241.849 44.0177L241.558 43.5846L240.478 44.3147L240.77 44.7478L241.849 44.0177ZM243.512 23.3532L243.12 23.7007L243.984 24.6775L244.376 24.3301L243.512 23.3532ZM243.055 45.5232L242.708 45.1304L241.734 45.9965L242.08 46.3892L243.055 45.5232ZM254.125 52.0387L253.663 51.9279C253.487 51.8877 253.366 51.8524 253.316 51.8172C253.231 51.7719 253.19 51.7014 253.19 51.6057C253.19 51.505 253.236 51.4244 253.321 51.364C253.406 51.3086 253.522 51.2784 253.668 51.2784C253.798 51.2784 253.909 51.2985 253.994 51.3439C254.125 51.4093 254.195 51.5251 254.205 51.6812H254.732C254.722 51.3992 254.617 51.1878 254.421 51.0417C254.225 50.8957 253.984 50.8202 253.703 50.8202C253.366 50.8202 253.115 50.8957 252.939 51.0518C252.769 51.2079 252.678 51.4043 252.678 51.6409C252.678 51.8977 252.769 52.0891 252.944 52.2099C253.05 52.2804 253.241 52.3509 253.522 52.4113L253.808 52.4717C253.974 52.507 254.095 52.5473 254.175 52.5926C254.25 52.6379 254.29 52.7084 254.29 52.794C254.29 52.945 254.21 53.0458 254.054 53.1011C253.974 53.1314 253.864 53.1465 253.733 53.1465C253.512 53.1465 253.356 53.0911 253.266 52.9853C253.216 52.9249 253.18 52.8343 253.165 52.7134H252.643C252.643 52.9853 252.743 53.2018 252.939 53.3579C253.135 53.514 253.411 53.5946 253.753 53.5946C254.095 53.5946 254.356 53.514 254.537 53.3579C254.722 53.1968 254.813 53.0004 254.813 52.7587C254.813 52.5171 254.732 52.3459 254.577 52.22C254.476 52.1394 254.326 52.074 254.125 52.0286V52.0387Z" fill="#04315B"/>
<path d="M253.874 22.2052L251.628 33.192L251.568 33.484L251.839 33.7408C251.839 33.7408 252.015 33.4186 252.643 33.1114C253.271 32.8043 253.889 32.8546 253.889 32.8546L253.874 22.2052V22.2052ZM256.631 34.7227C256.812 35.2312 256.706 35.7801 256.706 35.7801L267.48 35.8002L266.872 35.6995L256.184 33.479L255.943 33.7257C255.943 33.7257 256.455 34.2091 256.636 34.7227H256.631ZM255.064 38.2322C254.622 38.4236 253.889 38.489 253.889 38.489L253.919 49.3046L256.184 38.0912L255.827 37.7186C255.827 37.7186 255.511 38.0409 255.069 38.2322H255.064ZM251.071 35.8103L240.348 35.7952C240.348 35.7952 240.689 35.8657 241.247 35.9815C243.904 36.5404 251.548 38.1416 251.548 38.1416L251.95 37.7086C251.95 37.7086 251.669 37.4467 251.382 36.9482C251.086 36.4347 251.076 35.8053 251.076 35.8053L251.071 35.8103ZM261.126 28.4791L256.154 31.7368L256.435 33.192L261.126 28.474V28.4791ZM256.465 38.3732L261.377 43.2724L257.957 38.0912L256.46 38.3732H256.465ZM246.576 43.1164L251.598 39.8334L251.267 38.3984L246.576 43.1164V43.1164ZM249.855 33.5042L251.633 33.187L246.576 28.4791L249.855 33.5042Z" fill="#04315B"/>
<defs>
<radialGradient id="paint0_radial_2_79" cx="0" cy="0" r="1" gradientUnits="userSpaceOnUse" gradientTransform="translate(-nan -nan) rotate(-nan) scale(-nan -nan)">
<stop stop-color="#04315B"/>
<stop offset="1" stop-color="white" stop-opacity="0"/>
</radialGradient>
</defs>
</svg>
