<svg width="339" height="167" viewBox="0 0 339 167" fill="none" xmlns="http://www.w3.org/2000/svg">
<g clip-path="url(#clip0_6_2)">
<path d="M72.8157 29.113L75.9492 27.4437C77.6202 30.4178 80.0747 32.9738 85.0892 32.9738C89.2146 32.9738 92.4524 30.6782 92.4524 26.9215C92.4524 23.1649 90.2065 21.4956 85.7669 19.5124L82.9461 18.2076C77.8809 15.9119 75.1122 13.46 75.1122 8.50275C75.1122 3.54547 79.1349 0 84.4622 0C89.2146 0 92.1918 2.19151 94.0713 5.32182L91.042 7.19942C89.6838 5.00792 87.8042 3.33861 84.4622 3.33861C81.1201 3.33861 78.8221 5.37389 78.8221 8.40005C78.8221 11.4262 80.4931 12.9393 84.4622 14.7648L87.283 16.0696C93.1851 18.6777 96.213 21.5997 96.213 26.9215C96.213 32.7655 91.5648 36.3125 85.1934 36.3125C78.4036 36.3125 74.6952 32.8697 72.8157 29.113V29.113Z" fill="#012169"/>
<path d="M103.368 0.418045H124.99V3.75666H107.128V16.4341H123.057V19.7207H107.128V32.5558H125.721V35.8944H103.368V0.418045Z" fill="#012169"/>
<path d="M132.04 0.418045H153.662V3.75666H135.801V16.4341H151.729V19.7207H135.801V32.5558H154.393V35.8944H132.04V0.418045Z" fill="#012169"/>
<path d="M182.49 3.75666H171.574V0.418045H197.165V3.75666H186.25V35.8944H182.49V3.75666Z" fill="#012169"/>
<path d="M202.807 0.418045H206.567V16.9563H225.577V0.418045H229.338V35.8944H225.577V20.347H206.567V35.8944H202.807V0.418045Z" fill="#012169"/>
<path d="M238.79 0.418045H260.412V3.75666H242.551V16.4341H258.479V19.7207H242.551V32.5558H261.144V35.8944H238.79V0.418045V0.418045Z" fill="#012169"/>
<path d="M11.7392 147.509H24.1416V150.988H15.7024V155.995H23.377V159.53H15.7024V166.744H11.7377V147.508L11.7392 147.509Z" fill="#0D2D6C"/>
<path d="M27.5126 147.509H34.6485C38.5842 147.509 41.8133 149.348 41.8133 153.845C41.8133 156.759 40.2842 158.597 38.047 159.475L42.436 166.745H37.9051L33.9969 160.07H31.4773V166.745H27.5126V147.509V147.509ZM34.5355 156.731C36.4889 156.731 37.7357 155.967 37.7357 153.845C37.7357 151.723 36.4324 150.988 34.5355 150.988H31.4773V156.731H34.5355V156.731Z" fill="#0D2D6C"/>
<path d="M44.5038 157.127C44.5038 151.441 48.9217 147.255 54.472 147.255C60.0223 147.255 64.4403 151.441 64.4403 157.127C64.4403 162.814 60.0223 167 54.472 167C48.9217 167 44.5038 162.814 44.5038 157.127V157.127ZM60.3612 157.127C60.3612 153.534 57.9821 150.792 54.4706 150.792C50.9591 150.792 48.58 153.536 48.58 157.127C48.58 160.719 50.9591 163.463 54.4706 163.463C57.9821 163.463 60.3612 160.719 60.3612 157.127Z" fill="#0D2D6C"/>
<path d="M68.0343 147.313H68.3456L77.8317 157.722L87.1758 147.313H87.5161V166.747H83.6933V159.533C83.6933 158.231 83.8352 156.167 83.8352 156.167C83.8352 156.167 82.6739 157.864 81.7674 158.882L77.9446 163.154H77.5768L73.754 158.882C72.8475 157.864 71.6862 156.167 71.6862 156.167C71.6862 156.167 71.8281 158.233 71.8281 159.533V166.747H68.0328V147.313H68.0343Z" fill="#0D2D6C"/>
<path d="M103.035 159.702L96.352 147.509H100.797L103.515 152.743C104.223 154.101 105.073 156.364 105.073 156.364C105.073 156.364 105.867 154.158 106.574 152.743L109.179 147.509H113.256L107.027 159.419V166.745H103.035V159.702V159.702Z" fill="#0D2D6C"/>
<path d="M113.824 157.127C113.824 151.441 118.242 147.255 123.792 147.255C129.342 147.255 133.76 151.441 133.76 157.127C133.76 162.814 129.342 167 123.792 167C118.242 167 113.824 162.814 113.824 157.127ZM129.681 157.127C129.681 153.534 127.302 150.792 123.791 150.792C120.279 150.792 117.9 153.536 117.9 157.127C117.9 160.719 120.279 163.463 123.791 163.463C127.302 163.463 129.681 160.719 129.681 157.127Z" fill="#0D2D6C"/>
<path d="M137.185 159.788V147.511H141.15V159.562C141.15 162.362 142.367 163.437 145.001 163.437C147.635 163.437 148.795 162.362 148.795 159.562V147.511H152.76V159.788C152.76 164.654 149.39 167.001 145.001 167.001C140.612 167.001 137.186 164.654 137.186 159.788H137.185Z" fill="#0D2D6C"/>
<path d="M157.149 147.509H164.285C168.221 147.509 171.45 149.348 171.45 153.845C171.45 156.759 169.921 158.597 167.683 159.475L172.072 166.745H167.542L163.633 160.07H161.114V166.745H157.149V147.509V147.509ZM164.172 156.731C166.125 156.731 167.372 155.967 167.372 153.845C167.372 151.723 166.069 150.988 164.172 150.988H161.114V156.731H164.172Z" fill="#0D2D6C"/>
<path d="M181.218 147.509H187.136C193.054 147.509 197.274 151.441 197.274 157.127C197.274 162.814 193.083 166.745 187.136 166.745H181.218V147.509ZM186.938 163.265C191.214 163.265 193.167 160.719 193.167 157.126C193.167 153.533 191.214 150.987 186.938 150.987H185.183V163.264H186.938V163.265Z" fill="#0D2D6C"/>
<path d="M199.964 157.127C199.964 151.441 204.382 147.255 209.933 147.255C215.483 147.255 219.901 151.441 219.901 157.127C219.901 162.814 215.483 167 209.933 167C204.382 167 199.964 162.814 199.964 157.127ZM215.822 157.127C215.822 153.534 213.443 150.792 209.931 150.792C206.42 150.792 204.041 153.536 204.041 157.127C204.041 160.719 206.42 163.463 209.931 163.463C213.443 163.463 215.822 160.719 215.822 157.127Z" fill="#0D2D6C"/>
<path d="M222.619 157.127C222.619 151.441 227.037 147.255 232.587 147.255C238.137 147.255 242.555 151.441 242.555 157.127C242.555 162.814 238.137 167 232.587 167C227.037 167 222.619 162.814 222.619 157.127ZM238.476 157.127C238.476 153.534 236.097 150.792 232.586 150.792C229.074 150.792 226.695 153.536 226.695 157.127C226.695 160.719 229.074 163.463 232.586 163.463C236.097 163.463 238.476 160.719 238.476 157.127Z" fill="#0D2D6C"/>
<path d="M245.923 147.509H253.059C256.995 147.509 260.224 149.348 260.224 153.845C260.224 156.759 258.695 158.597 256.458 159.475L260.847 166.745H256.316L252.408 160.07H249.888V166.745H245.923V147.509V147.509ZM252.946 156.731C254.9 156.731 256.147 155.967 256.147 153.845C256.147 151.723 254.843 150.988 252.946 150.988H249.888V156.731H252.946Z" fill="#0D2D6C"/>
<path d="M262.065 162.955L265.292 161.088C266.142 162.474 267.246 163.492 269.201 163.492C270.843 163.492 271.891 162.672 271.891 161.541C271.891 160.182 270.815 159.702 269.002 158.91L268.012 158.486C265.152 157.269 263.255 155.742 263.255 152.517C263.255 149.548 265.52 147.284 269.06 147.284C271.58 147.284 273.393 148.16 274.696 150.452L271.609 152.432C270.929 151.215 270.192 150.735 269.06 150.735C267.928 150.735 267.163 151.47 267.163 152.432C267.163 153.62 267.899 154.101 269.599 154.836L270.589 155.26C273.959 156.702 275.856 158.173 275.856 161.483C275.856 165.047 273.052 166.999 269.286 166.999C265.52 166.999 263.226 165.245 262.065 162.954V162.955Z" fill="#0D2D6C"/>
<path d="M283.33 150.99H277.837V147.511H292.787V150.99H287.294V166.745H283.329V150.99H283.33Z" fill="#0D2D6C"/>
<path d="M295.705 147.509H308.448V150.988H299.67V155.402H307.401V158.797H299.67V163.266H308.845V166.745H295.705V147.509V147.509Z" fill="#0D2D6C"/>
<path d="M312.526 147.509H319.294C323.229 147.509 326.459 149.461 326.459 153.959C326.459 158.458 323.202 160.437 319.294 160.437H316.49V166.745H312.526V147.509V147.509ZM319.181 156.958C321.134 156.958 322.381 156.082 322.381 153.959C322.381 151.837 321.078 150.99 319.181 150.99H316.49V156.958H319.181Z" fill="#0D2D6C"/>
<path d="M44.4401 89.1849L60.687 124.033C61.0693 124.797 61.5471 124.797 61.8338 124.033L88.689 58.3476H71.2953L59.7313 88.803L45.1076 57.1065C44.9165 56.6291 44.5342 56.6291 44.3431 57.1065L30.3898 88.803L18.251 58.3476H0L27.236 124.033C27.5242 124.702 28.0961 124.702 28.3829 124.033L44.4386 89.1849H44.4401Z" fill="#012169"/>
<path d="M298.383 108.434V72.92H304.212C314.725 72.92 321.224 79.888 321.224 90.6763C321.224 101.465 314.725 108.434 304.212 108.434H298.383ZM280.989 123.138H306.124C324.857 123.138 339.001 110.822 339.001 90.6763C339.001 70.5303 324.857 58.216 306.124 58.216H280.989V123.138ZM227.948 123.138H272.961V108.529H245.343V58.216H227.949V123.138H227.948ZM183.508 89.5321V72.92H191.535C197.459 72.92 200.615 75.8782 200.615 81.2261C200.615 86.5739 197.459 89.5321 191.535 89.5321H183.508V89.5321ZM183.508 102.803H189.433L200.901 123.138H219.729L206.253 100.128C213.994 96.5955 218.105 89.817 218.105 81.2261C218.105 67.9541 208.931 58.216 192.396 58.216H166.114V123.138H183.508V102.803Z" fill="#012169"/>
<path d="M152.785 90.9714C145.946 89.5306 139.104 88.0913 132.265 86.652V86.6028C134.771 82.7637 137.278 78.9232 139.784 75.084C135.917 77.601 132.047 80.1151 128.18 82.6306C125.788 71.2203 123.914 62.2171 123.846 62.1274C122.435 68.9276 121.024 75.7306 119.613 82.5323C119.58 82.5482 119.547 82.5655 119.515 82.5815C115.679 80.0833 111.843 77.5822 108.007 75.084C110.482 78.8899 112.955 82.6986 115.43 86.503C115.463 86.5363 115.496 86.571 115.528 86.6028C108.705 88.0421 101.881 89.4814 95.0574 90.9207C101.847 92.3601 108.64 93.8008 115.43 95.2401H115.528C113.054 99.03 110.58 102.82 108.107 106.61C108.074 106.659 108.04 106.708 108.007 106.76C111.859 104.261 115.712 101.761 119.564 99.2629C120.992 106.096 122.419 112.933 123.846 119.766C125.289 112.933 126.735 106.096 128.18 99.2629H128.229C132.081 101.778 135.934 104.293 139.784 106.81C137.278 102.97 134.771 99.1299 132.265 95.2907C139.104 93.8514 145.946 92.4121 152.785 90.9728V90.9714ZM130.87 81.4893C133.243 79.9184 135.617 78.3445 137.993 76.7722C134.955 79.8171 131.916 82.8621 128.878 85.9085C128.695 85.0304 128.511 84.1524 128.33 83.2772C128.488 82.7449 130.346 81.8379 130.87 81.4908V81.4893ZM109.651 76.7736H109.701C112.755 79.8359 115.812 82.8968 118.865 85.9591C117.935 86.1399 117.005 86.3237 116.077 86.5045C113.934 83.2613 111.792 80.0167 109.651 76.7736ZM109.701 105.123L118.815 95.9865C119.031 96.9138 119.247 97.841 119.463 98.7668C116.209 100.886 112.955 103.005 109.701 105.123ZM123.947 116.74C123.934 109.881 123.92 103.021 123.907 96.1616C122.448 96.1572 121.126 95.5815 120.147 94.6528C119.903 94.8987 119.658 95.1461 119.415 95.392C112.327 93.9194 105.236 92.4468 98.1475 90.9743H118.458C118.453 90.8817 118.443 90.7935 118.443 90.6994C118.443 89.2529 119.011 87.9423 119.932 86.9645C119.759 86.7938 119.587 86.6245 119.415 86.4538C120.892 79.3224 122.37 72.1881 123.847 65.0552C123.86 71.783 123.875 78.5109 123.886 85.2402C123.898 85.2402 123.911 85.2387 123.922 85.2387C125.488 85.2387 126.895 85.8955 127.893 86.9428C128.057 86.7793 128.219 86.6159 128.381 86.4524C135.502 87.925 142.627 89.399 149.748 90.8716C142.963 90.8846 136.176 90.899 129.392 90.9106C129.334 92.3977 128.681 93.7314 127.663 94.6817C127.903 94.9175 128.141 95.1533 128.381 95.3891C126.904 102.506 125.426 109.623 123.949 116.737L123.947 116.74ZM138.142 105.12C135.071 102.058 131.998 98.9968 128.928 95.9345C129.825 95.7348 131.289 95.4904 131.835 95.3877C132.089 95.6437 136.6 102.785 138.142 105.12ZM123.922 85.732C121.171 85.732 118.941 87.9553 118.941 90.6965C118.941 93.4377 121.171 95.6625 123.922 95.6625C126.674 95.6625 128.904 93.4392 128.904 90.6965C128.904 87.9539 126.674 85.732 123.922 85.732ZM123.922 94.6687C121.723 94.6687 119.939 92.8909 119.939 90.6965C119.939 88.5021 121.723 86.7243 123.922 86.7243C126.122 86.7243 127.906 88.5036 127.906 90.6965C127.906 92.8895 126.122 94.6687 123.922 94.6687ZM123.922 88.2143C122.547 88.2143 121.432 89.3252 121.432 90.6965C121.432 92.0679 122.547 93.1788 123.922 93.1788C125.298 93.1788 126.413 92.0679 126.413 90.6965C126.413 89.3252 125.298 88.2143 123.922 88.2143ZM123.922 92.6826C122.822 92.6826 121.931 91.793 121.931 90.6965C121.931 89.6001 122.822 88.7104 123.922 88.7104C125.023 88.7104 125.914 89.6001 125.914 90.6965C125.914 91.793 125.023 92.6826 123.922 92.6826ZM123.922 89.2081C123.097 89.2081 122.428 89.8749 122.428 90.6965C122.428 91.5182 123.099 92.1865 123.922 92.1865C124.746 92.1865 125.417 91.5182 125.417 90.6965C125.417 89.8749 124.746 89.2081 123.922 89.2081Z" fill="#2B386F"/>
<path d="M108.573 114.586L107.729 114.026L106.33 116.134L107.175 116.692L108.573 114.586V114.586ZM102.858 109.784L102.188 109.026L100.291 110.699L100.96 111.457L102.858 109.784ZM98.5819 103.669L98.1302 102.764L95.864 103.889L96.3143 104.796L98.5819 103.671V103.669ZM93.5544 97.1568L96.0349 96.6548L95.835 95.6654L93.3531 96.1659L93.5544 97.1582V97.1568ZM94.2987 81.0698L96.6981 81.8755L97.021 80.9165L94.6216 80.1108L94.2987 81.0698ZM97.7522 73.72L99.862 75.1173L100.421 74.2754L98.3126 72.8766L97.7522 73.72V73.72ZM103.753 66.8431L102.993 67.5129L104.668 69.4078L105.427 68.7395L103.753 66.8431V66.8431ZM110.57 62.421L109.665 62.8724L110.792 65.1362L111.7 64.6863L110.572 62.421H110.57ZM111.856 116.389L110.945 115.943L109.833 118.214L110.744 118.66L111.856 116.389ZM105.561 112.374L104.798 111.709L103.135 113.615L103.899 114.279L105.561 112.374ZM100.522 106.867L99.9576 106.028L97.8565 107.439L98.4212 108.278L100.522 106.867ZM97.0803 100.247L96.7516 99.289L94.3566 100.109L94.6853 101.065L97.0803 100.247ZM93.3198 85.0218L95.8046 85.5078L96.0001 84.5155L93.5153 84.0294L93.3198 85.0218ZM95.7829 77.2828L98.0578 78.3937L98.5023 77.4853L96.2289 76.3744L95.7829 77.2828ZM102.741 71.3433L100.834 69.6827L100.168 70.445L102.076 72.1056L102.741 71.3433ZM107.014 64.41L106.174 64.9742L107.586 67.0717L108.427 66.5075L107.012 64.41H107.014ZM92.8086 87.3492C94.0699 74.8859 102.715 64.6039 114.306 60.9282L113.392 61.2407L114.212 63.6332L115.171 63.3049L114.351 60.9138C115.318 60.61 116.307 60.3539 117.314 60.1427L117.809 62.5903L118.802 62.3892L118.308 59.9489C118.62 59.8954 118.931 59.839 119.245 59.7941C120.706 59.5829 120.624 57.999 119.121 58.2102C104.331 60.2917 92.7203 72.272 91.226 87.2234C91.281 87.4491 92.7855 87.4086 92.8072 87.3464L92.8086 87.3492ZM127.444 59.6943C128.113 59.7753 128.772 59.8809 129.428 60.0039L128.967 62.356L129.961 62.5512L130.421 60.2035C131.42 60.4219 132.399 60.691 133.359 61.0034L132.603 63.2499L133.563 63.571L134.318 61.3332C135.274 61.679 136.209 62.0681 137.118 62.5049L136.089 64.6082L137 65.0537L138.025 62.9592C138.926 63.4264 139.803 63.9327 140.65 64.4824L139.37 66.4106L140.213 66.969L141.487 65.0523C142.317 65.6309 143.118 66.2486 143.885 66.9039L142.383 68.6238L143.147 69.2892L144.647 67.5707C145.394 68.2506 146.103 68.9695 146.781 69.7188L145.087 71.2131L145.756 71.9711L147.449 70.4797C148.099 71.2478 148.711 72.0492 149.286 72.8795L147.425 74.1308L147.99 74.9698L149.848 73.72C150.394 74.5647 150.901 75.4384 151.364 76.3367L149.364 77.3305L149.815 78.2346L151.81 77.2452C152.24 78.1507 152.631 79.0779 152.974 80.0298L150.867 80.7516L151.196 81.7092L153.297 80.9903C153.604 81.9435 153.871 82.9142 154.085 83.905L151.913 84.3419L152.114 85.3357L154.282 84.8974C154.373 85.395 154.456 85.8955 154.522 86.3989C154.699 87.7427 156.283 87.6212 156.098 86.2195C154.169 71.5386 142.462 59.9316 127.719 58.135C126.41 57.9758 126.229 59.554 127.451 59.6987L127.444 59.6943ZM118.503 121.087L118.98 118.639L117.986 118.445L117.505 120.903C116.497 120.699 115.509 120.44 114.539 120.141L115.346 117.747L114.384 117.423L113.579 119.821L114.426 120.105C103.036 116.54 94.4666 106.613 92.91 94.485C92.7826 94.3172 91.3143 94.4358 91.3114 94.4821C93.1431 109.529 105.239 121.414 120.397 122.946C120.408 123.008 120.595 121.469 120.397 121.353C119.758 121.284 119.127 121.191 118.501 121.085L118.503 121.087ZM154.479 94.9204C154.238 96.6042 153.859 98.2431 153.358 99.8285L151.251 99.1212L150.928 100.08L153.035 100.788C152.701 101.742 152.324 102.675 151.9 103.584L149.89 102.603L149.445 103.511L151.454 104.492C150.996 105.395 150.498 106.273 149.96 107.121L148.087 105.879L147.528 106.723L149.402 107.965C148.834 108.799 148.222 109.601 147.576 110.374L145.873 108.891L145.207 109.653L146.919 111.142C146.245 111.896 145.533 112.612 144.792 113.296L143.283 111.587L142.522 112.257L144.037 113.971C143.274 114.632 142.476 115.252 141.651 115.836L140.362 113.924L139.521 114.488L140.814 116.407C139.971 116.964 139.098 117.481 138.2 117.955L137.159 115.861L136.252 116.312L137.298 118.411C136.389 118.852 135.459 119.254 134.505 119.607L133.734 117.363L132.777 117.692L133.548 119.938C132.589 120.258 131.613 120.536 130.614 120.763L130.139 118.406L129.146 118.606L129.622 120.965C128.662 121.149 127.687 121.295 126.698 121.388C126.19 121.482 126.221 122.831 126.745 122.975C141.88 121.589 154.023 109.889 156.072 94.9754C156.08 94.7931 154.684 94.6933 154.477 94.9219L154.479 94.9204ZM155.11 92.5119V91.2014H157.588V90.3161H155.11V89.2341H157.809V88.3329H154.068V93.4276H157.934V92.5119H155.11V92.5119ZM91.9688 93.5072H92.9897L94.4247 88.411H93.3386L92.6595 91.3605L92.5017 92.1431L92.3453 91.3301L91.74 88.4125H90.6149L90.0386 91.3475L89.8923 92.1445L89.7461 91.3316L89.0713 88.4139H87.9404L89.3855 93.5101H90.376L90.9914 90.5302L91.1709 89.5451L91.3519 90.5302L91.9673 93.5101L91.9688 93.5072ZM124.739 59.6162L122.715 56.0635H121.596V61.1597H122.59V57.5433L124.667 61.1597H125.731V56.0635H124.738V59.6162H124.739ZM124.387 122.406L123.492 122.195C123.146 122.114 122.92 122.043 122.815 121.984C122.65 121.894 122.567 121.758 122.567 121.576C122.567 121.378 122.65 121.224 122.819 121.113C122.986 121.002 123.21 120.947 123.492 120.947C123.746 120.947 123.957 120.989 124.127 121.074C124.383 121.203 124.519 121.421 124.539 121.729H125.563C125.546 121.187 125.343 120.773 124.959 120.489C124.576 120.204 124.111 120.063 123.566 120.063C122.916 120.063 122.421 120.215 122.085 120.515C121.749 120.818 121.581 121.197 121.581 121.654C121.581 122.153 121.752 122.522 122.095 122.756C122.299 122.896 122.671 123.027 123.216 123.147L123.768 123.267C124.09 123.338 124.326 123.417 124.476 123.507C124.625 123.598 124.699 123.728 124.699 123.897C124.699 124.185 124.547 124.384 124.243 124.489C124.082 124.543 123.873 124.572 123.617 124.572C123.188 124.572 122.886 124.465 122.708 124.258C122.612 124.141 122.547 123.968 122.514 123.735H121.496C121.496 124.266 121.688 124.682 122.073 124.987C122.459 125.289 122.987 125.441 123.659 125.441C124.331 125.441 124.826 125.286 125.185 124.98C125.546 124.673 125.727 124.285 125.727 123.819C125.727 123.354 125.573 123.018 125.269 122.778C125.074 122.623 124.78 122.499 124.387 122.408" fill="#2B386F"/>
<path d="M142.192 90.9323H141.691C141.645 95.6032 139.839 99.8531 136.904 103.05L137.186 103.478C140.255 100.18 142.146 95.7768 142.194 90.9309" fill="#2B386F"/>
<path d="M105.324 92.5626C105.153 92.5264 104.984 92.4917 104.814 92.4555C105.236 97.0946 107.351 101.242 110.538 104.28L110.892 103.927C107.82 101.002 105.767 97.0194 105.324 92.5611" fill="#2B386F"/>
<path d="M136.626 77.4361C133.34 74.1944 128.862 72.1577 123.907 72.0434V72.5425C128.692 72.6567 133.02 74.611 136.21 77.7269L136.628 77.4361H136.626Z" fill="#2B386F"/>
<path d="M136.868 78.4067C139.532 81.2955 141.274 85.0435 141.626 89.1936L142.136 89.2977C141.803 84.9567 139.988 81.0322 137.197 78.0263L136.868 78.4067Z" fill="#2B386F"/>
<path d="M110.727 77.7225C113.746 74.7759 117.781 72.8694 122.262 72.5772L122.366 72.068C117.699 72.3371 113.492 74.313 110.357 77.3826L110.725 77.7225H110.727Z" fill="#2B386F"/>
<path d="M110.02 77.7167C106.747 81.0857 104.733 85.6799 104.733 90.7443C104.733 90.8152 104.738 90.8846 104.739 90.954H105.24C105.239 90.8846 105.234 90.8166 105.234 90.7443C105.234 85.8622 107.16 81.43 110.291 78.1608L110.021 77.7167H110.02Z" fill="#2B386F"/>
<path d="M136.504 103.468C133.675 106.363 129.89 108.314 125.659 108.822L125.554 109.338C129.968 108.849 133.917 106.828 136.859 103.82L136.506 103.468H136.504Z" fill="#2B386F"/>
<path d="M123.957 108.945C123.794 108.949 123.63 108.956 123.465 108.956C118.72 108.956 114.397 107.144 111.152 104.175L110.722 104.456C114.066 107.559 118.542 109.458 123.465 109.458C123.631 109.458 123.794 109.451 123.959 109.447V108.946L123.957 108.945Z" fill="#2B386F"/>
<path d="M98.1606 90.9468C98.1606 90.8788 98.1562 90.8137 98.1562 90.7443C98.1562 76.7808 109.486 65.4602 123.465 65.4602C123.55 65.4602 123.636 65.466 123.72 65.4675L123.824 64.9612C123.704 64.9583 123.585 64.9525 123.463 64.9525C109.205 64.9525 97.6436 76.5002 97.6436 90.7443C97.6436 90.8123 97.648 90.8788 97.6494 90.9468H98.1591H98.1606Z" fill="#2B386F"/>
<path d="M123.898 65.4718C137.651 65.7018 148.735 76.885 148.772 90.6705L149.156 90.7501L149.283 90.7703C149.283 90.7616 149.285 90.753 149.285 90.7443C149.285 76.6449 137.957 65.1926 123.896 64.9612V65.4704L123.898 65.4718Z" fill="#2B386F"/>
<path d="M148.769 90.9439C148.665 104.569 137.771 115.62 124.202 116.011L124.099 116.523C137.999 116.187 149.173 104.886 149.28 90.9453H148.771L148.769 90.9439Z" fill="#2B386F"/>
<path d="M123.976 116.015C123.805 116.018 123.636 116.027 123.465 116.027C109.594 116.027 98.3358 104.88 98.1635 91.064C97.9057 91.0104 97.7305 90.9743 97.6509 90.9569C97.7653 105.104 109.276 116.538 123.465 116.538C123.637 116.538 123.807 116.527 123.978 116.524V116.015H123.976Z" fill="#2B386F"/>
<path d="M121.516 76.2109C118.361 76.6289 115.522 78.0494 113.33 80.1368L114.449 81.1754C116.283 79.4526 118.604 78.2404 121.193 77.7905L121.517 76.2123L121.516 76.2109Z" fill="#2B386F"/>
<path d="M110.302 90.9613C110.301 90.8889 110.297 90.818 110.297 90.7457C110.297 87.546 111.445 84.6167 113.346 82.337L112.482 81.0177C110.181 83.6056 108.783 87.0122 108.783 90.7472C108.783 90.8195 108.788 90.8889 108.788 90.9613H110.302Z" fill="#2B386F"/>
<path d="M113.405 101.408L114.468 100.342C112.586 98.5802 111.22 96.2729 110.628 93.6721C110.095 93.5607 109.558 93.4493 109.016 93.335C109.58 96.4957 111.164 99.2962 113.405 101.41" fill="#2B386F"/>
<path d="M123.943 103.888C123.783 103.893 123.627 103.899 123.466 103.899C120.514 103.899 117.797 102.92 115.602 101.281L114.26 102.155C116.778 104.187 119.975 105.412 123.466 105.412C123.627 105.412 123.788 105.405 123.947 105.401L123.943 103.888V103.888Z" fill="#2B386F"/>
<path d="M132.912 99.8965C131.248 101.611 129.127 102.879 126.739 103.488L126.409 105.116C129.353 104.518 131.975 103.04 133.991 100.97L132.912 99.898V99.8965Z" fill="#2B386F"/>
<path d="M136.626 90.9236C136.587 93.8211 135.611 96.4885 133.985 98.6438L134.868 99.9775C136.881 97.4996 138.096 94.3563 138.138 90.9265L136.625 90.9236H136.626Z" fill="#2B386F"/>
<path d="M133.112 79.6927C130.636 77.5359 127.428 76.195 123.909 76.0894L123.912 77.6025C126.908 77.7023 129.651 78.8016 131.816 80.5794L133.112 79.6942V79.6927Z" fill="#2B386F"/>
<path d="M134.046 82.9171C135.171 84.4301 135.976 86.192 136.367 88.1043L137.963 88.4341C137.567 85.9345 136.538 83.6447 135.046 81.7338L134.046 82.9171V82.9171Z" fill="#2B386F"/>
</g>
<defs>
<clipPath id="clip0_6_2">
<rect width="339" height="167" fill="white"/>
</clipPath>
</defs>
</svg>
